<svg xmlns="http://www.w3.org/2000/svg" xmlns:xlink="http://www.w3.org/1999/xlink" width="600" height="850" version="1.1" viewBox="0 0 600 850"><g id="surface1"><path style="stroke:none;fill-rule:nonzero;fill:#8b89cc;fill-opacity:1" d="M 471.730469 371.238281 L 130.089844 371.238281 L 130.089844 268.5 C 164.75 131.078125 300.898438 129.199219 300.898438 129.199219 C 300.898438 129.199219 437.050781 131.078125 471.71875 268.5 Z M 300.898438 -0.03125 C 300.898438 -0.03125 51.449219 -8.230469 0 268.5 L 0 456.96875 C 0 456.96875 2.128906 477.140625 58.859375 518.109375 C 115.589844 559.078125 262.460938 674.441406 300.910156 674.441406 C 339.359375 674.441406 486.230469 559.078125 542.960938 518.109375 C 599.691406 477.140625 601.820312 456.96875 601.820312 456.96875 L 601.820312 268.5 C 550.359375 -8.21875 300.921875 -0.03125 300.921875 -0.03125"/><path style="stroke:none;fill-rule:nonzero;fill:#8b89cc;fill-opacity:1" d="M 300.910156 716.878906 C 300.910156 716.878906 262.25 713.101562 231.988281 692.078125 C 201.730469 671.089844 0 526.949219 0 526.949219 L 0 812.28125 C 0 812.28125 1.699219 845.480469 38.269531 845.480469 L 563.550781 845.480469 C 600.109375 845.480469 601.820312 812.28125 601.820312 812.28125 L 601.820312 526.941406 C 601.820312 526.941406 400.078125 671.078125 369.820312 692.089844 C 339.570312 713.089844 300.921875 716.878906 300.921875 716.878906"/></g></svg>