<svg xmlns="http://www.w3.org/2000/svg" width="321" height="321" preserveAspectRatio="xMidYMid meet" version="1.0" viewBox="0 0 3210 3210"><g id="layer101" fill="#f05133" stroke="none"><path d="M1535 3203 c-10 -3 -31 -12 -45 -21 -39 -24 -1428 -1412 -1458 -1457 -24 -35 -27 -50 -27 -120 0 -62 4 -87 19 -110 24 -38 977 -995 991 -995 5 0 91 82 191 181 178 178 182 182 173 213 -28 99 24 226 114 272 27 15 27 15 27 457 0 443 0 443 -44 474 -102 72 -131 201 -71 312 44 80 103 114 199 115 79 0 130 -20 178 -71 93 -97 78 -269 -30 -348 -41 -30 -41 -30 -41 -467 -1 -241 2 -438 6 -438 4 0 81 73 170 162 162 161 162 161 156 228 -12 146 69 252 205 266 84 9 135 -8 192 -66 119 -118 85 -308 -66 -380 -38 -17 -61 -21 -116 -18 -68 3 -68 3 -244 -172 -175 -175 -175 -175 -169 -225 18 -155 -108 -286 -260 -272 -61 6 -61 6 -243 -176 -100 -100 -182 -187 -182 -193 0 -13 298 -308 326 -322 46 -24 112 -32 166 -21 53 11 53 11 785 742 424 423 740 746 749 766 20 42 22 122 5 176 -11 33 -141 168 -720 748 -388 390 -724 720 -746 734 -30 20 -55 27 -105 29 -36 2 -74 0 -85 -3z"/></g></svg>