<?xml version="1.0" encoding="UTF-8"?>
<!DOCTYPE svg>
<svg version="1.0" viewBox="0 0 512 512" xmlns="http://www.w3.org/2000/svg">
	<g fill="#c7307e">
		<path d="m0 416v-96h32 32v64 64h64 64v32 32h-96-96v-96z"/>
		<path d="m321 480v-32h64 64v-64-64h31.5 31.5v96 96h-95.5-95.5v-32z"/>
		<path d="m193 415.5v-31.5h63.5 63.5v31.5 31.5h-63.5-63.5v-31.5z"/>
		<path d="m65 255.5v-63.5h31.5 31.5v63.5 63.5h-31.5-31.5v-63.5z"/>
		<path d="m384 255.5v-63.5h32 32v63.5 63.5h-32-32v-63.5z"/>
		<path d="m0 95.5v-95.5h96 96v31.5 31.5h-64-64v64 64h-32-32v-95.5z"/>
		<path d="m449 127v-64h-64-64v-31.5-31.5h95.5 95.5v95.5 95.5h-31.5-31.5v-64z"/>
		<path d="m193 96v-32h63.5 63.5v32 32h-63.5-63.5v-32z"/>
	</g>
</svg>
