<svg width="23" height="26" viewBox="0 0 23 26" xmlns="http://www.w3.org/2000/svg"><title>Apple</title><path d="M14.633 4.196c.842-1.088 1.481-2.626 1.25-4.196-1.377.096-2.988.977-3.927 2.126-.857 1.041-1.56 2.59-1.286 4.093 1.506.047 3.06-.856 3.963-2.023zm7.444 14.767c-.603 1.344-.893 1.944-1.67 3.134-1.082 1.66-2.61 3.73-4.504 3.744-1.681.019-2.115-1.101-4.397-1.088-2.283.012-2.759 1.11-4.443 1.093-1.893-.017-3.34-1.883-4.423-3.544-3.03-4.641-3.35-10.09-1.48-12.988 1.329-2.057 3.425-3.26 5.395-3.26 2.005 0 3.266 1.105 4.926 1.105 1.61 0 2.591-1.109 4.91-1.109 1.755 0 3.615.962 4.938 2.622-4.338 2.392-3.636 8.624.748 10.291z" fill="#A6ADC9" fill-rule="evenodd"/></svg>