<svg xmlns="http://www.w3.org/2000/svg" xmlns:xlink="http://www.w3.org/1999/xlink" id="svg" width="400" height="400" version="1.1" viewBox="0 0 400 400"><g id="svgg"><path id="path0" fill="#555" fill-rule="evenodd" stroke="none" d="M178.327 64.191 C 177.525 64.736,176.223 66.246,175.433 67.546 C 173.378 70.929,172.820 71.200,167.907 71.200 C 162.940 71.200,161.533 71.913,159.544 75.437 C 158.266 77.702,157.918 78.031,154.713 80.004 C 153.398 80.814,152.447 81.838,151.574 83.385 C 149.579 86.919,149.025 87.200,144.039 87.200 C 139.024 87.200,137.590 87.876,135.746 91.105 C 134.233 93.756,133.774 94.226,131.364 95.586 C 127.890 97.546,127.200 98.947,127.200 104.039 C 127.200 109.017,126.916 109.581,123.421 111.553 C 119.914 113.533,119.200 114.945,119.200 119.907 C 119.200 124.820,118.929 125.378,115.546 127.433 C 111.337 129.990,111.200 130.387,111.200 140.039 C 111.200 149.526,111.242 149.397,107.443 151.541 C 106.255 152.211,104.859 153.354,104.341 154.080 L 103.400 155.400 103.172 176.800 C 102.955 197.177,102.903 198.343,102.079 201.200 C 100.916 205.231,100.908 210.332,102.056 215.068 C 102.811 218.184,102.903 219.605,102.831 227.122 C 102.735 237.232,103.046 238.397,106.338 240.271 C 108.970 241.769,110.383 243.150,111.196 245.017 C 111.899 246.632,113.363 248.073,115.990 249.738 C 116.755 250.223,117.745 251.194,118.190 251.897 C 118.636 252.599,119.360 253.751,119.800 254.455 C 121.371 256.970,122.112 257.111,135.412 257.422 L 147.424 257.703 149.504 256.649 C 150.648 256.069,152.686 255.337,154.032 255.023 C 156.324 254.489,157.505 253.833,158.700 252.433 C 159.064 252.007,159.200 249.674,159.200 243.876 L 159.200 235.906 157.676 234.453 C 156.838 233.654,155.440 232.585,154.569 232.078 C 151.730 230.425,151.200 229.190,151.200 224.228 L 151.200 219.906 149.676 218.453 C 148.838 217.654,147.440 216.585,146.569 216.078 C 143.356 214.207,143.200 213.660,143.200 204.228 L 143.200 195.906 141.676 194.453 C 140.838 193.654,139.420 192.573,138.525 192.051 C 137.631 191.529,136.471 190.369,135.949 189.475 C 134.746 187.412,132.602 185.262,130.569 184.078 C 127.178 182.104,127.200 182.209,127.200 168.000 C 127.200 153.791,127.178 153.896,130.569 151.922 C 131.440 151.415,132.838 150.346,133.676 149.547 L 135.200 148.094 135.200 139.772 C 135.200 130.340,135.356 129.793,138.569 127.922 C 139.440 127.415,140.838 126.346,141.676 125.547 L 143.200 124.094 143.200 119.772 C 143.200 112.821,144.814 111.200,151.733 111.200 C 156.733 111.200,158.236 110.546,160.373 107.439 C 161.049 106.457,162.141 105.269,162.801 104.799 L 164.000 103.946 165.207 104.805 C 165.871 105.278,167.137 106.729,168.021 108.031 C 168.988 109.455,170.459 110.949,171.714 111.781 C 172.861 112.542,174.610 114.188,175.600 115.438 C 176.796 116.949,178.126 118.082,179.565 118.818 C 182.200 120.166,183.787 121.615,184.800 123.600 C 186.355 126.649,187.504 127.200,192.306 127.200 C 197.170 127.200,198.419 127.737,200.078 130.545 C 200.585 131.403,201.571 132.756,202.268 133.552 L 203.536 135.000 213.068 135.218 C 224.126 135.471,225.660 135.851,229.401 139.270 C 232.836 142.410,234.980 143.191,240.175 143.196 C 247.180 143.202,248.800 144.802,248.800 151.711 C 248.800 159.197,252.386 161.211,255.325 155.376 C 257.019 152.015,259.696 150.615,261.745 152.018 C 264.693 154.038,264.800 154.459,264.800 164.000 C 264.800 173.689,264.658 174.200,261.431 176.078 C 260.560 176.585,259.162 177.654,258.324 178.453 L 256.800 179.906 256.800 183.798 C 256.800 188.593,256.063 190.205,253.017 192.066 C 249.224 194.385,248.835 195.135,248.816 200.175 C 248.798 205.195,248.271 206.425,245.431 208.078 C 244.560 208.585,243.162 209.654,242.324 210.453 L 240.800 211.906 240.800 216.228 C 240.800 221.178,240.274 222.412,237.455 224.078 C 234.346 225.916,233.209 227.242,232.548 229.800 C 232.208 231.120,231.508 233.082,230.994 234.160 C 230.180 235.867,230.129 236.227,230.600 236.960 C 232.097 239.287,232.800 242.736,232.828 247.887 C 232.894 259.758,233.310 261.145,237.136 262.257 C 241.542 263.538,241.995 264.816,241.998 275.974 C 242.000 285.024,242.439 286.975,244.741 288.173 C 248.709 290.238,250.005 295.114,249.991 307.935 C 249.980 318.277,249.499 319.713,245.485 321.390 C 241.376 323.107,238.412 319.504,237.597 311.802 C 237.139 307.469,236.501 306.127,235.415 307.214 C 234.521 308.110,234.007 314.021,234.003 323.450 C 233.999 334.549,233.481 336.120,229.222 337.952 C 226.030 339.326,226.223 338.208,226.000 356.561 C 225.766 375.788,225.808 375.600,221.385 377.423 C 217.880 378.868,218.000 378.426,218.000 389.870 L 218.000 400.000 309.000 400.000 L 400.000 400.000 400.000 305.000 L 400.000 210.000 397.870 210.000 C 395.440 210.000,394.427 210.774,393.642 213.229 C 393.074 215.003,391.034 217.027,389.193 217.642 C 388.427 217.898,387.260 218.603,386.600 219.210 C 385.646 220.086,384.861 220.367,382.769 220.580 C 379.747 220.889,379.590 220.782,378.807 217.889 C 378.194 215.625,376.693 214.203,374.282 213.602 C 371.854 212.996,371.489 212.730,370.600 210.914 C 369.395 208.453,368.498 207.669,366.039 206.926 C 363.420 206.135,362.153 205.133,361.350 203.215 C 360.518 201.230,359.668 200.405,357.400 199.383 C 355.236 198.408,353.660 196.931,352.654 194.935 C 351.898 193.437,350.619 192.371,348.132 191.167 C 346.868 190.555,345.965 189.720,345.184 188.442 C 343.320 185.392,342.504 184.535,340.252 183.264 C 338.720 182.399,337.739 181.464,336.852 180.022 C 335.691 178.137,334.838 177.387,331.200 175.063 C 330.430 174.571,329.069 173.095,328.176 171.784 C 327.026 170.095,325.860 168.982,324.176 167.965 C 322.494 166.950,321.354 165.861,320.271 164.238 C 319.329 162.826,318.023 161.506,316.871 160.802 C 313.909 158.991,312.828 158.023,312.024 156.459 C 311.112 154.686,309.614 153.280,307.129 151.866 C 305.798 151.108,304.845 150.121,303.826 148.443 C 302.725 146.631,301.795 145.710,299.804 144.462 C 297.970 143.312,296.818 142.219,295.855 140.719 C 294.292 138.282,293.722 137.748,291.075 136.236 C 289.740 135.474,288.712 134.441,287.724 132.868 C 286.155 130.373,285.208 129.448,283.400 128.645 C 281.959 128.005,280.142 126.234,279.345 124.694 C 279.026 124.076,276.013 120.832,272.650 117.485 C 266.937 111.799,266.466 111.214,265.458 108.565 C 264.288 105.488,263.003 103.978,260.758 103.040 C 259.325 102.441,256.800 99.959,256.800 99.148 C 256.800 98.231,255.049 96.340,253.466 95.547 C 251.321 94.472,249.716 92.968,248.787 91.162 C 247.951 89.538,245.472 87.200,244.586 87.200 C 243.894 87.200,240.800 84.207,240.800 83.538 C 240.800 82.572,238.676 80.350,236.875 79.434 C 234.726 78.339,233.767 77.361,232.270 74.735 C 230.581 71.771,229.291 71.200,224.283 71.200 C 219.592 71.200,218.340 70.629,216.940 67.852 C 216.123 66.231,214.483 64.477,213.120 63.764 C 212.242 63.306,209.017 63.200,195.913 63.200 L 179.786 63.200 178.327 64.191 M145.981 264.154 C 145.209 264.679,144.082 266.017,143.478 267.127 C 142.874 268.238,141.830 269.608,141.159 270.173 L 139.939 271.200 127.629 271.200 L 115.320 271.200 113.687 272.383 C 112.789 273.034,111.474 274.451,110.766 275.533 C 108.674 278.728,108.252 278.861,99.462 279.087 C 90.467 279.318,89.714 279.592,87.552 283.423 C 86.266 285.702,85.920 286.030,82.713 288.004 C 81.413 288.804,80.447 289.838,79.607 291.327 C 78.225 293.775,77.761 294.230,75.105 295.746 C 71.876 297.590,71.200 299.024,71.200 304.039 C 71.200 309.017,70.916 309.581,67.421 311.553 C 63.408 313.818,63.201 314.428,63.196 323.993 C 63.192 333.473,62.874 334.657,59.270 338.599 C 55.929 342.255,55.519 343.876,55.189 354.734 C 54.867 365.352,54.901 365.240,51.400 367.199 C 50.300 367.814,48.860 368.983,48.200 369.795 L 47.000 371.273 46.886 385.637 L 46.771 400.000 114.386 400.000 L 182.000 400.000 182.000 397.870 C 182.000 395.439,181.311 394.535,178.615 393.423 C 174.497 391.725,174.020 390.333,174.009 379.970 C 173.999 370.685,174.048 370.839,170.615 369.423 C 166.229 367.615,166.019 366.822,166.009 352.025 C 165.999 338.157,166.022 338.259,162.515 336.399 C 159.124 334.600,158.000 330.487,158.000 319.882 C 158.000 315.160,157.435 313.948,154.515 312.399 C 150.451 310.243,150.000 307.383,150.000 283.773 C 150.000 263.561,149.616 261.685,145.981 264.154"/><path id="path1" fill="#c1a488" fill-rule="evenodd" stroke="none" d="M162.693 104.851 C 162.083 105.306,161.036 106.476,160.365 107.451 C 158.236 110.545,156.729 111.200,151.733 111.200 C 144.814 111.200,143.200 112.821,143.200 119.772 L 143.200 124.094 141.676 125.547 C 140.838 126.346,139.440 127.415,138.569 127.922 C 135.356 129.793,135.200 130.340,135.200 139.772 L 135.200 148.094 133.676 149.547 C 132.838 150.346,131.440 151.415,130.569 151.922 C 127.178 153.896,127.200 153.791,127.200 168.000 C 127.200 182.209,127.178 182.104,130.569 184.078 C 132.602 185.262,134.746 187.412,135.949 189.475 C 136.471 190.369,137.631 191.529,138.525 192.051 C 139.420 192.573,140.838 193.654,141.676 194.453 L 143.200 195.906 143.200 204.228 C 143.200 213.660,143.356 214.207,146.569 216.078 C 147.440 216.585,148.838 217.654,149.676 218.453 L 151.200 219.906 151.200 224.228 C 151.200 229.190,151.730 230.425,154.569 232.078 C 155.440 232.585,156.838 233.654,157.676 234.453 L 159.200 235.906 159.200 243.975 L 159.200 252.045 157.900 253.237 C 157.185 253.893,156.150 254.529,155.600 254.650 C 151.064 255.648,149.600 256.446,149.600 257.917 C 149.600 258.475,154.714 258.176,157.125 257.476 C 162.355 255.958,162.570 255.469,162.728 244.764 C 162.899 233.093,162.125 230.813,157.576 229.597 C 154.837 228.864,154.800 228.791,154.798 224.051 C 154.794 217.286,153.472 214.639,149.576 213.597 C 146.695 212.826,146.800 213.187,146.798 204.051 C 146.795 192.976,146.002 190.780,141.576 189.597 C 139.241 188.972,138.973 188.712,138.423 186.527 C 137.829 184.167,135.918 182.223,133.576 181.597 C 130.640 180.811,130.800 181.596,130.800 168.000 C 130.800 154.404,130.640 155.189,133.576 154.403 C 138.002 153.220,138.795 151.024,138.798 139.949 C 138.800 130.813,138.695 131.174,141.576 130.403 C 145.472 129.361,146.794 126.714,146.798 119.949 C 146.801 114.697,146.502 114.941,153.200 114.703 C 159.228 114.490,161.344 113.895,162.976 111.956 C 164.073 110.652,164.400 110.527,164.400 111.411 C 164.400 112.190,167.789 115.600,168.564 115.600 C 168.886 115.600,170.276 116.859,171.654 118.397 C 174.194 121.235,175.614 122.060,178.860 122.585 C 180.616 122.869,180.979 123.265,181.597 125.576 C 182.639 129.472,185.286 130.794,192.051 130.798 C 196.791 130.800,196.864 130.837,197.597 133.576 C 198.782 138.009,200.969 138.795,212.120 138.798 C 220.988 138.800,222.451 139.069,222.999 140.798 C 224.226 144.663,228.598 146.335,238.400 146.689 C 245.547 146.947,245.199 146.679,245.202 151.949 C 245.205 157.074,245.672 158.952,247.365 160.645 C 251.009 164.289,257.151 162.527,258.423 157.473 C 258.984 155.248,259.725 154.474,260.600 155.200 C 261.098 155.613,261.200 157.108,261.200 164.000 C 261.200 173.192,261.306 172.826,258.424 173.597 C 254.951 174.526,253.243 177.320,253.167 182.200 C 253.079 187.855,252.856 188.438,250.478 189.211 C 246.334 190.559,245.200 192.883,245.200 200.024 C 245.200 204.794,245.165 204.864,242.424 205.597 C 238.528 206.639,237.206 209.286,237.202 216.051 C 237.200 220.791,237.163 220.864,234.424 221.597 C 232.125 222.212,230.201 224.144,229.617 226.424 C 228.800 229.615,228.323 230.423,226.793 231.204 C 221.741 233.781,221.858 238.316,227.044 240.934 C 228.896 241.870,229.127 243.016,229.314 252.220 C 229.527 262.626,229.983 263.791,234.347 265.060 C 238.381 266.233,238.400 266.282,238.400 275.698 C 238.400 286.498,239.164 289.458,243.017 293.577 C 246.138 296.914,246.400 298.011,246.400 307.758 L 246.400 316.250 245.191 317.409 L 243.982 318.567 242.715 317.300 C 241.503 316.087,241.442 315.872,241.305 312.316 C 241.119 307.472,241.018 307.076,239.535 305.387 C 236.940 302.431,235.260 302.351,232.749 305.064 C 230.800 307.170,230.763 307.423,230.512 320.247 C 230.244 333.903,230.273 333.774,227.269 335.029 C 222.732 336.925,222.694 337.094,222.489 356.000 L 222.314 372.200 221.257 373.333 C 220.676 373.956,219.577 374.728,218.815 375.048 C 214.785 376.742,214.420 377.991,214.409 390.100 L 214.400 400.000 216.200 400.000 L 218.000 400.000 218.000 389.870 C 218.000 378.426,217.880 378.868,221.385 377.423 C 225.808 375.600,225.766 375.788,226.000 356.561 C 226.223 338.208,226.030 339.326,229.222 337.952 C 233.481 336.120,233.999 334.549,234.003 323.450 C 234.007 314.021,234.521 308.110,235.415 307.214 C 236.501 306.127,237.139 307.469,237.597 311.802 C 238.412 319.504,241.376 323.107,245.485 321.390 C 249.499 319.713,249.980 318.277,249.991 307.935 C 250.005 295.114,248.709 290.238,244.741 288.173 C 242.439 286.975,242.000 285.024,241.998 275.974 C 241.995 264.816,241.542 263.538,237.136 262.257 C 233.310 261.145,232.894 259.758,232.828 247.887 C 232.800 242.736,232.097 239.287,230.600 236.960 C 230.129 236.227,230.180 235.867,230.994 234.160 C 231.508 233.082,232.208 231.120,232.548 229.800 C 233.209 227.242,234.346 225.916,237.455 224.078 C 240.274 222.412,240.800 221.178,240.800 216.228 L 240.800 211.906 242.324 210.453 C 243.162 209.654,244.560 208.585,245.431 208.078 C 248.271 206.425,248.798 205.195,248.816 200.175 C 248.835 195.135,249.224 194.385,253.017 192.066 C 256.063 190.205,256.800 188.593,256.800 183.798 L 256.800 179.906 258.324 178.453 C 259.162 177.654,260.560 176.585,261.431 176.078 C 264.658 174.200,264.800 173.689,264.800 164.000 C 264.800 154.459,264.693 154.038,261.745 152.018 C 259.696 150.615,257.019 152.015,255.325 155.376 C 252.386 161.211,248.800 159.197,248.800 151.711 C 248.800 144.802,247.180 143.202,240.175 143.196 C 234.980 143.191,232.836 142.410,229.401 139.270 C 225.660 135.851,224.126 135.471,213.068 135.218 L 203.536 135.000 202.268 133.552 C 201.571 132.756,200.585 131.403,200.078 130.545 C 198.419 127.737,197.170 127.200,192.306 127.200 C 187.504 127.200,186.355 126.649,184.800 123.600 C 183.787 121.615,182.200 120.166,179.565 118.818 C 178.126 118.082,176.796 116.949,175.600 115.438 C 174.610 114.188,172.861 112.542,171.714 111.781 C 170.459 110.949,168.988 109.455,168.021 108.031 C 165.523 104.353,164.322 103.636,162.693 104.851 M148.800 263.342 C 148.800 263.869,149.070 265.065,149.400 266.000 C 149.895 267.404,150.000 270.513,150.000 283.808 C 150.000 307.380,150.452 310.243,154.515 312.399 C 157.435 313.948,158.000 315.160,158.000 319.882 C 158.000 330.487,159.124 334.600,162.515 336.399 C 166.022 338.259,165.999 338.157,166.009 352.025 C 166.019 366.822,166.229 367.615,170.615 369.423 C 174.048 370.839,173.999 370.685,174.009 379.970 C 174.020 390.333,174.497 391.725,178.615 393.423 C 181.311 394.535,182.000 395.439,182.000 397.870 L 182.000 400.000 183.800 400.000 L 185.600 400.000 185.600 398.187 C 185.600 394.957,183.940 392.143,181.460 391.169 C 180.767 390.897,179.615 390.127,178.900 389.459 L 177.600 388.243 177.600 380.309 C 177.600 370.521,176.979 368.552,173.460 367.169 C 172.767 366.897,171.615 366.127,170.900 365.459 L 169.600 364.243 169.600 352.137 C 169.600 337.587,168.621 333.940,164.350 332.584 C 162.982 332.150,161.931 327.668,161.635 321.000 C 161.302 313.487,159.658 309.634,156.337 308.580 C 154.241 307.915,153.854 304.499,153.602 284.400 C 153.443 271.727,153.222 265.481,152.909 264.800 C 152.657 264.250,152.439 263.955,152.425 264.144 C 152.411 264.334,152.085 264.128,151.700 263.687 C 150.552 262.371,148.800 262.163,148.800 263.342"/><path id="path2" fill="#8dc251" fill-rule="evenodd" stroke="none" d="M0.000 200.000 L 0.000 400.000 23.386 400.000 L 46.771 400.000 46.886 385.637 L 47.000 371.273 48.200 369.795 C 48.860 368.983,50.300 367.814,51.400 367.199 C 54.901 365.240,54.867 365.352,55.189 354.734 C 55.519 343.876,55.929 342.255,59.270 338.599 C 62.874 334.657,63.192 333.473,63.196 323.993 C 63.201 314.428,63.408 313.818,67.421 311.553 C 70.916 309.581,71.200 309.017,71.200 304.039 C 71.200 298.947,71.890 297.546,75.364 295.586 C 77.779 294.223,78.231 293.759,79.767 291.069 C 80.476 289.827,81.536 288.728,82.735 287.990 C 85.917 286.032,86.268 285.699,87.552 283.423 C 89.714 279.592,90.467 279.318,99.462 279.087 C 108.252 278.861,108.674 278.728,110.766 275.533 C 111.474 274.451,112.789 273.034,113.687 272.383 L 115.320 271.200 127.707 271.200 L 140.094 271.200 141.547 269.674 C 142.346 268.834,143.461 267.349,144.024 266.374 C 145.259 264.236,147.796 262.632,148.409 263.601 C 148.712 264.081,148.789 264.019,148.794 263.292 C 148.802 262.142,150.581 262.412,151.760 263.742 L 152.519 264.600 152.262 263.200 C 152.121 262.430,151.896 261.319,151.762 260.731 C 151.556 259.827,151.710 259.564,152.759 259.021 C 154.382 258.182,154.372 258.174,151.770 258.238 C 149.603 258.292,149.547 258.266,149.782 257.331 L 150.023 256.367 148.732 257.035 C 147.572 257.635,146.214 257.674,135.420 257.422 C 120.664 257.077,121.548 257.359,118.200 251.928 C 117.760 251.214,116.770 250.231,116.000 249.743 C 113.365 248.075,111.900 246.634,111.196 245.017 C 110.383 243.150,108.970 241.769,106.338 240.271 C 103.046 238.397,102.735 237.232,102.831 227.122 C 102.903 219.605,102.811 218.184,102.056 215.068 C 100.908 210.332,100.916 205.231,102.079 201.200 C 102.903 198.343,102.955 197.177,103.172 176.800 L 103.400 155.400 104.341 154.080 C 104.859 153.354,106.255 152.211,107.443 151.541 C 111.242 149.397,111.200 149.526,111.200 140.039 C 111.200 130.387,111.337 129.990,115.546 127.433 C 118.929 125.378,119.200 124.820,119.200 119.907 C 119.200 114.945,119.914 113.533,123.421 111.553 C 126.916 109.581,127.200 109.017,127.200 104.039 C 127.200 98.947,127.890 97.546,131.364 95.586 C 133.774 94.226,134.233 93.756,135.746 91.105 C 137.590 87.876,139.024 87.200,144.039 87.200 C 149.025 87.200,149.579 86.919,151.574 83.385 C 152.447 81.838,153.398 80.814,154.713 80.004 C 157.918 78.031,158.266 77.702,159.544 75.437 C 161.533 71.913,162.940 71.200,167.907 71.200 C 172.820 71.200,173.378 70.929,175.433 67.546 C 176.223 66.246,177.525 64.736,178.327 64.191 L 179.786 63.200 195.913 63.200 C 209.017 63.200,212.242 63.306,213.120 63.764 C 214.483 64.477,216.123 66.231,216.940 67.852 C 218.340 70.629,219.592 71.200,224.283 71.200 C 229.291 71.200,230.581 71.771,232.270 74.735 C 233.767 77.361,234.726 78.339,236.875 79.434 C 238.676 80.350,240.800 82.572,240.800 83.538 C 240.800 84.207,243.894 87.200,244.586 87.200 C 245.472 87.200,247.951 89.538,248.787 91.162 C 249.716 92.968,251.321 94.472,253.466 95.547 C 255.049 96.340,256.800 98.231,256.800 99.148 C 256.800 99.959,259.325 102.441,260.758 103.040 C 263.003 103.978,264.288 105.488,265.458 108.565 C 266.466 111.214,266.937 111.799,272.650 117.485 C 276.013 120.832,279.026 124.076,279.345 124.694 C 280.142 126.234,281.959 128.005,283.400 128.645 C 285.208 129.448,286.155 130.373,287.724 132.868 C 288.712 134.441,289.740 135.474,291.075 136.236 C 293.722 137.748,294.292 138.282,295.855 140.719 C 296.818 142.219,297.970 143.312,299.804 144.462 C 301.795 145.710,302.725 146.631,303.826 148.443 C 304.845 150.121,305.798 151.108,307.129 151.866 C 309.614 153.280,311.112 154.686,312.024 156.459 C 312.828 158.023,313.909 158.991,316.871 160.802 C 318.023 161.506,319.329 162.826,320.271 164.238 C 321.354 165.861,322.494 166.950,324.176 167.965 C 325.860 168.982,327.026 170.095,328.176 171.784 C 329.069 173.095,330.430 174.571,331.200 175.063 C 334.838 177.387,335.691 178.137,336.852 180.022 C 337.739 181.464,338.720 182.399,340.252 183.264 C 342.504 184.535,343.320 185.392,345.184 188.442 C 345.965 189.720,346.868 190.555,348.132 191.167 C 350.619 192.371,351.898 193.437,352.654 194.935 C 353.660 196.931,355.236 198.408,357.400 199.383 C 359.668 200.405,360.518 201.230,361.350 203.215 C 362.153 205.133,363.420 206.135,366.039 206.926 C 368.498 207.669,369.395 208.453,370.600 210.914 C 371.489 212.730,371.854 212.996,374.282 213.602 C 376.693 214.203,378.194 215.625,378.807 217.889 C 379.590 220.782,379.747 220.889,382.769 220.580 C 384.869 220.366,385.642 220.088,386.600 219.203 C 387.260 218.594,388.443 217.890,389.229 217.640 C 391.001 217.075,393.026 215.036,393.644 213.193 C 394.462 210.752,395.458 210.000,397.870 210.000 L 400.000 210.000 400.000 105.000 L 400.000 0.000 200.000 0.000 L 0.000 0.000 0.000 200.000"/><path id="path3" fill="#fdd2a8" fill-rule="evenodd" stroke="none" d="M163.047 111.859 C 161.628 113.804,159.170 114.517,153.200 114.716 C 146.504 114.938,146.801 114.695,146.798 119.949 C 146.794 126.714,145.472 129.361,141.576 130.403 C 138.695 131.174,138.800 130.813,138.798 139.949 C 138.795 151.024,138.002 153.220,133.576 154.403 C 130.640 155.189,130.800 154.404,130.800 168.000 C 130.800 181.596,130.640 180.811,133.576 181.597 C 135.918 182.223,137.829 184.167,138.423 186.527 C 138.973 188.712,139.241 188.972,141.576 189.597 C 146.002 190.780,146.795 192.976,146.798 204.051 C 146.800 213.187,146.695 212.826,149.576 213.597 C 153.472 214.639,154.794 217.286,154.798 224.051 C 154.800 228.791,154.837 228.864,157.576 229.597 C 161.977 230.774,162.796 233.001,162.796 243.800 C 162.796 254.509,162.212 256.102,157.882 257.209 C 151.802 258.762,151.229 259.379,152.438 263.065 C 153.297 265.686,153.345 266.573,153.585 284.400 C 153.856 304.495,154.245 307.916,156.337 308.580 C 159.658 309.634,161.302 313.487,161.635 321.000 C 161.931 327.668,162.982 332.150,164.350 332.584 C 168.621 333.940,169.600 337.587,169.600 352.137 L 169.600 364.243 170.900 365.459 C 171.615 366.127,172.767 366.897,173.460 367.169 C 176.979 368.552,177.600 370.521,177.600 380.309 L 177.600 388.243 178.900 389.459 C 179.615 390.127,180.767 390.897,181.460 391.169 C 183.940 392.143,185.600 394.957,185.600 398.187 C 185.600 399.532,185.755 400.000,186.200 400.000 C 186.664 400.000,186.799 399.479,186.798 397.700 C 186.793 393.006,185.263 390.449,181.963 389.624 C 178.810 388.835,179.022 389.535,178.800 379.157 C 178.553 367.598,178.026 366.292,173.253 365.400 C 170.702 364.923,170.800 365.468,170.800 351.771 C 170.800 335.392,170.686 334.840,166.365 330.375 C 163.266 327.172,162.800 325.783,162.800 319.756 C 162.800 312.186,162.181 310.319,158.365 306.375 C 154.712 302.599,154.802 303.183,154.788 283.236 C 154.781 273.866,154.598 264.850,154.381 263.200 C 153.903 259.571,154.494 258.681,157.111 259.083 C 159.973 259.522,160.000 259.570,160.000 264.200 C 160.000 268.899,160.737 270.335,164.000 272.000 C 165.462 272.746,168.000 275.284,168.000 276.000 C 168.000 276.716,170.538 279.254,172.000 280.000 C 173.462 280.746,176.000 283.284,176.000 284.000 C 176.000 284.705,178.528 287.249,179.962 287.987 C 182.011 289.041,183.379 290.643,184.586 293.400 C 185.242 294.898,186.480 296.655,187.880 298.074 C 190.036 300.260,190.167 300.516,191.250 304.674 C 193.031 311.515,195.234 313.271,198.253 310.253 L 200.000 308.505 200.000 304.067 C 200.000 299.070,200.684 297.692,204.000 296.000 C 205.462 295.254,208.000 292.716,208.000 292.000 C 208.000 291.284,210.538 288.746,212.000 288.000 C 213.462 287.254,216.000 284.716,216.000 284.000 C 216.000 283.284,218.538 280.746,220.000 280.000 C 221.462 279.254,224.000 276.716,224.000 276.000 C 224.000 275.292,226.530 272.750,227.962 272.018 C 228.753 271.614,230.210 270.392,231.200 269.302 C 232.534 267.834,233.396 267.248,234.530 267.037 C 237.127 266.554,237.104 266.461,237.294 278.117 C 237.515 291.711,238.809 295.984,243.022 297.041 C 244.866 297.504,245.200 299.213,245.200 308.200 C 245.200 314.914,245.097 316.387,244.600 316.800 C 243.297 317.881,242.800 316.618,242.800 312.224 C 242.800 303.859,239.703 300.124,234.152 301.794 C 229.578 303.171,229.200 304.577,229.200 320.224 C 229.200 333.085,229.240 332.819,227.200 333.374 C 221.313 334.976,221.443 334.500,221.200 355.357 C 220.978 374.434,221.257 372.818,218.037 373.624 C 215.874 374.165,214.218 375.750,213.640 377.832 C 212.909 380.466,213.050 400.000,213.800 400.000 C 214.317 400.000,214.401 398.629,214.409 390.100 C 214.420 377.991,214.785 376.742,218.815 375.048 C 219.577 374.728,220.676 373.956,221.257 373.333 L 222.314 372.200 222.489 356.000 C 222.694 337.094,222.732 336.925,227.269 335.029 C 230.273 333.774,230.244 333.903,230.512 320.247 C 230.763 307.423,230.800 307.170,232.749 305.064 C 235.260 302.351,236.940 302.431,239.535 305.387 C 241.018 307.076,241.119 307.472,241.305 312.316 C 241.442 315.872,241.503 316.087,242.715 317.300 L 243.982 318.567 245.191 317.409 L 246.400 316.250 246.400 307.758 C 246.400 298.011,246.138 296.914,243.017 293.577 C 239.164 289.458,238.400 286.498,238.400 275.698 C 238.400 266.282,238.381 266.233,234.347 265.060 C 229.983 263.791,229.527 262.626,229.314 252.220 C 229.122 242.784,228.923 241.883,226.793 240.796 C 221.741 238.219,221.858 233.684,227.044 231.066 C 228.322 230.420,228.828 229.508,229.617 226.424 C 230.201 224.144,232.125 222.212,234.424 221.597 C 237.163 220.864,237.200 220.791,237.202 216.051 C 237.206 209.286,238.528 206.639,242.424 205.597 C 245.165 204.864,245.200 204.794,245.200 200.024 C 245.200 192.883,246.334 190.559,250.478 189.211 C 252.856 188.438,253.079 187.855,253.167 182.200 C 253.243 177.320,254.951 174.526,258.424 173.597 C 261.306 172.826,261.200 173.192,261.200 164.000 C 261.200 157.108,261.098 155.613,260.600 155.200 C 259.725 154.474,258.984 155.248,258.423 157.473 C 257.151 162.527,251.009 164.289,247.365 160.645 C 245.672 158.952,245.205 157.074,245.202 151.949 C 245.199 146.679,245.547 146.947,238.400 146.689 C 228.598 146.335,224.226 144.663,222.999 140.798 C 222.451 139.069,220.988 138.800,212.120 138.798 C 200.969 138.795,198.782 138.009,197.597 133.576 C 196.864 130.837,196.791 130.800,192.051 130.798 C 185.286 130.794,182.639 129.472,181.597 125.576 C 180.979 123.265,180.616 122.869,178.860 122.585 C 175.614 122.060,174.194 121.235,171.654 118.397 C 170.276 116.859,168.886 115.600,168.564 115.600 C 167.789 115.600,164.400 112.190,164.400 111.411 C 164.400 110.519,163.904 110.683,163.047 111.859"/><path id="path4" fill="#f9fafb" fill-rule="evenodd" stroke="none" d="M154.804 259.527 C 154.042 260.154,154.013 260.405,154.381 263.200 C 154.598 264.850,154.781 273.866,154.788 283.236 C 154.802 303.183,154.712 302.599,158.365 306.375 C 162.181 310.319,162.800 312.186,162.800 319.756 C 162.800 325.783,163.266 327.172,166.365 330.375 C 170.686 334.840,170.800 335.392,170.800 351.771 C 170.800 365.468,170.702 364.923,173.253 365.400 C 178.026 366.292,178.553 367.598,178.800 379.157 C 179.022 389.535,178.810 388.835,181.963 389.624 C 185.263 390.449,186.793 393.006,186.798 397.700 L 186.800 400.000 200.000 400.000 L 213.200 400.000 213.202 389.700 C 213.205 376.389,213.711 374.706,218.037 373.624 C 221.257 372.818,220.978 374.434,221.200 355.357 C 221.443 334.500,221.313 334.976,227.200 333.374 C 229.240 332.819,229.200 333.085,229.200 320.224 C 229.200 304.577,229.578 303.171,234.152 301.794 C 239.703 300.124,242.800 303.859,242.800 312.224 C 242.800 316.618,243.297 317.881,244.600 316.800 C 245.097 316.387,245.200 314.914,245.200 308.200 C 245.200 299.213,244.866 297.504,243.022 297.041 C 238.809 295.984,237.515 291.711,237.294 278.117 C 237.104 266.461,237.127 266.554,234.530 267.037 C 233.396 267.248,232.534 267.834,231.200 269.302 C 230.210 270.392,228.753 271.614,227.962 272.018 C 226.530 272.750,224.000 275.292,224.000 276.000 C 224.000 276.716,221.462 279.254,220.000 280.000 C 218.538 280.746,216.000 283.284,216.000 284.000 C 216.000 284.716,213.462 287.254,212.000 288.000 C 210.538 288.746,208.000 291.284,208.000 292.000 C 208.000 292.716,205.462 295.254,204.000 296.000 C 200.684 297.692,200.000 299.070,200.000 304.067 L 200.000 308.505 198.253 310.253 C 195.234 313.271,193.031 311.515,191.250 304.674 C 190.167 300.516,190.036 300.260,187.880 298.074 C 186.480 296.655,185.242 294.898,184.586 293.400 C 183.379 290.643,182.011 289.041,179.962 287.987 C 178.528 287.249,176.000 284.705,176.000 284.000 C 176.000 283.284,173.462 280.746,172.000 280.000 C 170.538 279.254,168.000 276.716,168.000 276.000 C 168.000 275.284,165.462 272.746,164.000 272.000 C 160.737 270.335,160.000 268.899,160.000 264.200 C 160.000 259.570,159.973 259.522,157.111 259.083 C 156.044 258.919,155.390 259.045,154.804 259.527"/></g></svg>