<svg width="23" height="24" viewBox="0 0 23 24" xmlns="http://www.w3.org/2000/svg"><title>Shape</title><path d="M7.47 14.118c0 .543.083 1.037.252 1.482a4.18 4.18 0 0 0 1.773 2.054 6.29 6.29 0 0 0 1.29.61c.458.163.937.283 1.423.36a9.88 9.88 0 0 0 3.182-.025c.54-.098 1.066-.228 1.585-.394a14.04 14.04 0 0 0 1.52-.59 27.965 27.965 0 0 0 1.543-.748v4.786c-.587.282-1.164.519-1.74.723-.577.198-1.153.371-1.74.509-.588.14-1.183.247-1.791.31-.61.064-1.233.1-1.881.1-.865 0-1.701-.1-2.505-.294a9.944 9.944 0 0 1-2.262-.84 9.486 9.486 0 0 1-1.939-1.334 8.475 8.475 0 0 1-1.513-1.765 8.47 8.47 0 0 1-.98-2.138 8.64 8.64 0 0 1-.342-2.457c0-.928.13-1.81.389-2.654A8.397 8.397 0 0 1 4.858 9.49 8.465 8.465 0 0 1 6.64 7.609a9.486 9.486 0 0 1 2.371-1.34 4.893 4.893 0 0 0-1.117 1.669 7.102 7.102 0 0 0-.515 1.934h8.208c0-.812-.083-1.518-.252-2.125-.17-.607-.44-1.112-.818-1.51-.375-.403-.858-.706-1.452-.904-.595-.201-1.312-.304-2.151-.304-.991 0-1.982.142-2.973.435-.99.282-1.931.688-2.825 1.2a13.664 13.664 0 0 0-2.464 1.828A11.45 11.45 0 0 0 .76 10.779c.108-.953.324-1.87.623-2.743.3-.871.696-1.683 1.171-2.435a10.969 10.969 0 0 1 1.672-2.026 9.95 9.95 0 0 1 2.126-1.553c.782-.423 1.61-.766 2.512-.995.9-.201 1.859-.321 2.868-.321.59 0 1.178.053 1.765.155.588.106 1.16.247 1.719.43 1.11.375 2.1.897 2.972 1.56a10.03 10.03 0 0 1 2.198 2.305 10.232 10.232 0 0 1 1.355 2.884c.31 1.048.469 2.139.469 3.272v2.806H7.47z" fill="#A6ADC9"/></svg>