<svg width="25" height="23" viewBox="0 0 25 23" xmlns="http://www.w3.org/2000/svg"><title>firefox copy</title><g transform="translate(.37 .059)" fill="#A6ADC9" fill-rule="evenodd"><ellipse opacity=".3" cx="11.89" cy="10.871" rx="11.098" ry="10.871"/><path d="M23.78 8.39c0 .288-.022.849-.069 1.683a18.446 18.446 0 0 1-.302 2.457c-.155.804-.44 1.706-.859 2.707a12.52 12.52 0 0 1-1.533 2.707c-.604.803-1.432 1.562-2.485 2.275-1.053.712-2.245 1.22-3.576 1.524a10.53 10.53 0 0 1-2.183.318.757.757 0 0 0-.186.046c-.62.03-1.239.03-1.858 0-3.84-.303-6.766-2.154-8.778-5.551C1.02 14.949.495 13.417.37 11.96a9.835 9.835 0 0 0-.185 1.092c-.093-1.729.046-3.14.418-4.231-.279.454-.48.88-.604 1.274.248-1.365.573-2.442.975-3.23.03-.183.217-.516.558-1.002v-.136c-.063-.849.023-1.615.255-2.298.233-.682.426-1.106.581-1.273.155-.167.279-.296.371-.387.03.728.418 1.426 1.162 2.093.186.03.355.045.51.045a5.915 5.915 0 0 1 2.416.046c.495-.607 1.254-1.016 2.276-1.229l.882-.045c-.898.516-1.44 1.259-1.626 2.23.341.697.79 1.046 1.347 1.046h1.022c.526 0 .805.045.836.136v.091c.03.03.03.076 0 .136v.092c-.031.303-.14.53-.325.682-.031 0-.046.008-.046.023s-.016.022-.047.022c0 .03-.14.122-.418.273-.371.243-.666.44-.882.592-.403.243-.604.41-.604.5v.046h-.047a2 2 0 0 1 .186.682c.062.273.077.44.047.5v.41a4.065 4.065 0 0 0-1.069-.364c-.434.182-.68.38-.743.592l-.093.363c0 .577.418 1.108 1.254 1.593.34.212.69.334 1.045.364.356.03.635.016.837-.046.2-.06.448-.151.743-.273.294-.12.503-.196.627-.227.929-.242 1.687-.03 2.275.637.187.182.225.357.117.523-.109.167-.272.22-.488.16-.093.03-.155.037-.186.022-.03-.015-.1 0-.209.046a3.696 3.696 0 0 1-.232.09 1.1 1.1 0 0 0-.232.137c-.11.076-.194.13-.256.16s-.162.098-.302.204c-.14.106-.255.175-.348.205-.371.273-.906.47-1.602.591-.697.121-1.278.121-1.742 0 .371.273.665.47.882.592.217.122.573.311 1.068.568.496.259.922.425 1.278.5.355.077.805.115 1.347.115.541 0 1.037-.091 1.486-.273.449-.182.929-.493 1.44-.933.51-.44.998-.993 1.463-1.66.093-.152.155-.243.186-.274.061 0-.016.41-.233 1.229-.092.425-.123.637-.092.637.526-.364.89-1.062 1.091-2.093a8.572 8.572 0 0 0 .07-3.003c.371.152.634.44.79.864l.093.092c.185-.577.293-1.327.325-2.253.03-.924-.063-1.69-.28-2.297.403.121.774.516 1.116 1.183a5.975 5.975 0 0 0-.418-1.342 4.868 4.868 0 0 0-.628-1.047 9.495 9.495 0 0 0-.743-.819 4.41 4.41 0 0 0-.812-.636c-.28-.167-.55-.32-.813-.455a5.046 5.046 0 0 0-.743-.32 9.083 9.083 0 0 0-.627-.18 6.146 6.146 0 0 0-.418-.092c-.093-.015-.125-.023-.093-.023a8.922 8.922 0 0 1 2.369-.318c-.093-.152-.272-.288-.535-.41a6.37 6.37 0 0 0-.86-.318c-.309-.091-.61-.167-.905-.228-.294-.06-.643-.136-1.045-.227h-.046.093c.866-.243 2.23-.06 4.087.546.68.212 1.3.599 1.858 1.16.557.561.906.978 1.045 1.251.14.273.24.5.302.682v-.181c.03-.152.007-.387-.07-.706a6.695 6.695 0 0 0-.348-1.023c.03 0 .077.022.14.068.06.046.177.213.348.5.17.29.363.706.58 1.252.34.818.634 2.29.883 4.413l.278-1.73c.03.153.047.373.047.66"/></g></svg>