<svg xmlns="http://www.w3.org/2000/svg" xmlns:xlink="http://www.w3.org/1999/xlink" id="svg" width="400" height="406.557" version="1.1" viewBox="0 0 400 406.557"><g id="svgg"><path id="path0" fill="#000" fill-rule="evenodd" stroke="none"/><path id="path1" fill="#00f" fill-rule="evenodd" stroke="none" d="M286.905 23.087 C 287.514 23.179,288.414 23.177,288.905 23.082 C 289.397 22.987,288.900 22.911,287.800 22.914 C 286.700 22.917,286.297 22.995,286.905 23.087 M135.829 43.829 C 135.483 44.174,135.205 44.669,135.212 44.929 C 135.219 45.188,135.414 45.074,135.646 44.674 C 135.878 44.275,136.458 43.792,136.934 43.600 C 137.576 43.341,137.626 43.244,137.129 43.225 C 136.759 43.211,136.174 43.483,135.829 43.829 M95.632 360.900 C 95.595 361.709,96.964 363.213,97.700 363.173 C 97.975 363.158,97.802 362.954,97.315 362.719 C 96.829 362.484,96.258 361.821,96.047 361.246 C 95.793 360.555,95.652 360.438,95.632 360.900 M240.000 381.152 C 240.000 381.542,241.555 382.998,241.723 382.764 C 241.787 382.674,241.426 382.201,240.920 381.714 C 240.414 381.227,240.000 380.974,240.000 381.152 M254.900 383.491 C 255.725 383.578,257.075 383.578,257.900 383.491 C 258.725 383.405,258.050 383.334,256.400 383.334 C 254.750 383.334,254.075 383.405,254.900 383.491"/><path id="path2" fill="#05a" fill-rule="evenodd" stroke="none" d="M305.905 23.083 C 306.402 23.179,307.122 23.175,307.505 23.075 C 307.887 22.975,307.480 22.896,306.600 22.901 C 305.720 22.905,305.407 22.987,305.905 23.083 M139.959 43.751 C 140.316 44.180,140.260 44.347,139.708 44.506 C 139.319 44.618,138.715 44.827,138.367 44.972 C 137.949 45.145,137.733 45.024,137.733 44.617 C 137.733 44.278,137.913 44.000,138.133 44.000 C 138.353 44.000,138.429 43.895,138.301 43.768 C 137.469 42.936,135.228 45.670,135.989 46.587 C 136.240 46.889,136.322 47.621,136.177 48.262 C 135.986 49.107,136.162 48.936,136.860 47.600 C 137.549 46.281,138.281 45.564,139.600 44.916 C 140.590 44.431,141.164 44.026,140.876 44.016 C 140.588 44.007,140.464 43.820,140.600 43.600 C 140.736 43.380,140.545 43.200,140.175 43.200 C 139.649 43.200,139.602 43.320,139.959 43.751 M137.400 45.202 C 137.157 46.459,136.764 46.924,136.318 46.478 C 136.062 46.222,136.082 45.793,136.377 45.243 C 136.949 44.173,137.603 44.147,137.400 45.202 M23.900 350.689 C 24.615 350.778,25.785 350.778,26.500 350.689 C 27.215 350.601,26.630 350.528,25.200 350.528 C 23.770 350.528,23.185 350.601,23.900 350.689 M95.600 357.678 C 95.600 357.902,95.840 357.993,96.133 357.881 C 96.470 357.752,96.850 358.183,97.163 359.048 C 97.436 359.803,98.094 360.705,98.626 361.054 C 99.545 361.656,99.615 362.400,98.753 362.400 C 98.533 362.400,98.481 362.192,98.638 361.938 C 98.819 361.646,98.748 361.585,98.444 361.773 C 97.808 362.166,96.706 361.221,96.977 360.515 C 97.095 360.209,97.013 360.068,96.795 360.203 C 96.578 360.337,96.400 360.227,96.400 359.957 C 96.400 359.687,96.295 359.571,96.168 359.699 C 95.180 360.686,98.251 362.984,99.665 362.317 L 100.678 361.838 99.439 361.011 C 98.758 360.556,97.891 359.569,97.514 358.818 C 96.870 357.535,95.600 356.779,95.600 357.678 M100.624 362.613 C 99.946 363.125,99.934 363.200,100.524 363.200 C 100.896 363.200,101.200 363.001,101.200 362.757 C 101.200 362.514,101.479 362.422,101.821 362.553 C 102.177 362.689,102.337 362.622,102.197 362.395 C 101.871 361.868,101.550 361.912,100.624 362.613 M240.474 377.459 C 240.213 377.738,240.003 378.199,240.006 378.483 C 240.011 378.855,240.131 378.832,240.437 378.400 C 240.814 377.867,240.887 377.867,241.095 378.400 C 241.223 378.730,241.885 379.556,242.564 380.236 C 243.244 380.915,244.070 381.577,244.400 381.705 C 244.933 381.913,244.933 381.986,244.400 382.363 C 243.968 382.669,243.945 382.789,244.317 382.794 C 245.855 382.812,245.815 381.824,244.245 381.023 C 243.194 380.486,242.342 379.636,241.791 378.576 C 241.124 377.292,240.848 377.058,240.474 377.459 M240.605 379.592 C 239.943 380.663,242.467 382.896,243.343 382.013 C 243.687 381.667,243.634 381.616,243.131 381.807 C 242.300 382.123,240.648 380.574,240.957 379.769 C 241.205 379.121,240.969 379.002,240.605 379.592 M286.816 384.100 C 286.807 384.485,286.620 384.800,286.400 384.800 C 286.180 384.800,286.000 385.002,286.000 385.249 C 286.000 385.579,286.142 385.580,286.537 385.252 C 286.954 384.906,287.176 385.030,287.529 385.804 C 287.779 386.353,288.544 387.143,289.230 387.560 C 290.377 388.257,290.417 388.352,289.738 388.747 C 288.617 389.398,289.350 389.283,290.654 388.602 C 291.365 388.232,291.546 388.004,291.131 388.002 C 290.163 387.999,287.982 386.041,287.363 384.620 C 287.041 383.881,286.825 383.676,286.816 384.100 M286.400 386.676 C 286.400 387.555,288.393 388.967,288.905 388.451 C 289.299 388.054,289.267 388.003,288.748 388.201 C 288.323 388.363,287.802 388.074,287.248 387.370 C 286.782 386.777,286.400 386.465,286.400 386.676"/><path id="path3" fill="#00acee" fill-rule="evenodd" stroke="none" d="M368.196 10.394 C 368.309 10.576,368.041 10.631,367.601 10.516 C 367.090 10.382,366.798 10.504,366.794 10.853 C 366.789 11.280,366.703 11.268,366.400 10.800 C 366.142 10.400,366.010 10.367,366.006 10.700 C 366.003 10.975,365.775 11.155,365.500 11.100 C 365.225 11.045,365.045 11.225,365.100 11.500 C 365.155 11.775,365.034 12.000,364.832 12.000 C 364.630 12.000,364.484 12.585,364.508 13.300 C 364.531 14.015,364.415 15.005,364.249 15.500 L 363.946 16.400 350.473 16.416 C 339.062 16.430,330.349 16.558,322.100 16.833 C 321.165 16.864,320.400 17.060,320.400 17.268 C 320.400 17.477,320.240 17.549,320.045 17.428 C 319.605 17.156,318.708 18.175,319.070 18.537 C 319.215 18.682,319.123 18.800,318.867 18.800 C 318.610 18.800,318.400 19.081,318.400 19.424 C 318.400 19.816,318.585 19.936,318.900 19.747 C 319.263 19.529,319.255 19.626,318.871 20.099 C 318.580 20.458,318.400 21.168,318.471 21.676 C 318.630 22.816,314.216 23.067,291.789 23.195 C 273.332 23.300,273.204 23.329,272.641 27.577 L 272.372 29.600 256.886 29.641 C 248.369 29.663,239.637 29.667,237.481 29.649 C 235.184 29.629,233.657 29.768,233.790 29.984 C 233.922 30.198,233.425 30.256,232.609 30.124 C 231.693 29.975,231.200 30.054,231.200 30.348 C 231.200 30.596,231.009 30.800,230.776 30.800 C 230.543 30.800,230.464 30.620,230.600 30.400 C 230.918 29.886,230.424 29.894,228.897 30.426 C 227.410 30.945,226.318 33.050,227.236 33.631 C 227.700 33.924,227.703 33.989,227.253 33.994 C 226.887 33.998,226.770 34.329,226.898 35.000 L 227.089 36.000 219.045 36.014 C 212.672 36.026,195.177 36.274,191.018 36.412 C 190.589 36.426,189.969 36.654,189.642 36.919 C 189.173 37.297,189.110 37.293,189.347 36.900 C 189.512 36.625,189.457 36.400,189.224 36.400 C 188.991 36.400,188.800 36.580,188.800 36.800 C 188.800 37.020,188.575 37.155,188.300 37.100 C 188.010 37.042,187.820 37.373,187.847 37.891 C 187.873 38.381,187.749 38.692,187.572 38.583 C 186.763 38.083,186.711 198.471,187.520 199.280 C 188.258 200.018,386.768 200.245,388.715 199.510 L 389.993 199.027 389.998 105.089 C 390.002 43.029,389.869 11.234,389.606 11.396 C 389.369 11.543,389.316 11.364,389.474 10.951 C 389.679 10.416,389.584 10.321,389.049 10.526 C 388.634 10.685,388.457 10.631,388.605 10.391 C 388.768 10.129,385.273 10.004,378.422 10.027 C 372.685 10.046,368.083 10.211,368.196 10.394 M142.983 43.172 C 143.079 43.328,142.649 43.381,142.026 43.289 C 141.404 43.198,140.773 43.320,140.624 43.562 C 140.475 43.803,140.588 44.007,140.876 44.016 C 141.164 44.026,140.590 44.431,139.600 44.916 C 138.283 45.563,137.566 46.264,136.926 47.532 L 136.052 49.263 136.126 47.867 C 136.167 47.099,136.358 46.499,136.550 46.535 C 136.743 46.571,136.991 46.350,137.102 46.044 C 137.241 45.661,137.133 45.589,136.752 45.813 C 136.448 45.992,136.543 45.747,136.962 45.269 C 137.751 44.369,138.233 44.100,137.800 44.800 C 137.474 45.328,137.656 45.307,139.254 44.630 C 140.360 44.161,140.474 44.011,139.893 43.784 C 138.072 43.075,135.241 45.925,135.209 48.500 C 135.201 49.152,134.268 49.202,121.500 49.224 C 110.069 49.244,94.246 49.447,91.500 49.608 C 91.115 49.631,90.800 49.829,90.800 50.048 C 90.800 50.268,90.640 50.349,90.445 50.228 C 89.962 49.929,89.324 50.767,88.974 52.162 C 88.741 53.088,88.795 53.256,89.242 53.001 C 89.693 52.744,89.704 52.786,89.300 53.221 C 89.025 53.518,88.800 54.219,88.800 54.780 L 88.800 55.800 76.500 55.813 C 54.195 55.836,46.260 56.019,45.632 56.527 C 45.175 56.896,45.112 56.890,45.347 56.500 C 45.764 55.805,45.155 55.876,44.048 56.651 C 43.320 57.161,43.236 57.377,43.659 57.645 C 44.113 57.933,44.113 57.989,43.657 57.994 C 43.332 57.998,43.210 58.249,43.353 58.621 C 43.484 58.962,43.424 59.138,43.220 59.012 C 43.009 58.882,42.881 59.563,42.924 60.591 L 43.000 62.400 31.200 62.440 C 18.462 62.483,17.343 62.524,16.895 62.972 C 16.442 63.425,16.337 198.489,16.789 199.200 C 17.126 199.730,25.899 199.800,91.800 199.800 C 157.702 199.800,166.474 199.730,166.808 199.200 C 167.321 198.388,167.324 45.324,166.812 45.007 C 166.604 44.879,166.548 44.481,166.685 44.122 C 166.842 43.715,166.775 43.568,166.510 43.732 C 166.276 43.877,165.978 43.720,165.849 43.383 C 165.644 42.850,164.121 42.777,154.211 42.829 C 147.939 42.862,142.887 43.017,142.983 43.172 M17.097 220.362 C 16.465 221.001,16.182 347.050,16.807 349.494 C 17.032 350.373,18.147 350.444,33.814 350.582 C 50.179 350.726,50.351 350.747,50.381 352.600 C 50.385 352.820,50.195 352.730,49.960 352.400 C 49.282 351.449,49.895 354.380,50.598 355.453 C 51.209 356.386,53.055 356.836,56.200 356.820 C 57.080 356.816,60.230 356.887,63.200 356.979 C 66.170 357.071,74.934 357.167,82.676 357.192 L 96.752 357.238 97.476 358.714 C 97.874 359.525,98.782 360.577,99.493 361.050 C 100.648 361.819,100.701 361.933,99.992 362.118 C 99.556 362.232,99.294 362.171,99.411 361.983 C 99.527 361.794,99.242 361.437,98.777 361.188 C 98.312 360.939,97.608 360.013,97.213 359.130 C 96.777 358.156,96.382 357.705,96.209 357.985 C 95.784 358.672,96.339 360.485,96.874 360.155 C 97.154 359.981,97.212 360.057,97.027 360.356 C 96.634 360.992,97.579 362.094,98.285 361.823 C 98.591 361.705,98.735 361.782,98.604 361.993 C 98.223 362.610,100.337 362.950,101.022 362.382 C 101.503 361.983,101.738 361.978,102.117 362.361 C 102.495 362.742,102.448 362.790,101.900 362.581 C 101.467 362.416,101.200 362.503,101.200 362.810 C 101.200 363.153,101.633 363.234,102.609 363.076 C 103.409 362.946,103.921 363.004,103.794 363.210 C 103.669 363.412,104.595 363.557,105.885 363.538 C 107.158 363.520,117.158 363.526,128.108 363.552 L 148.015 363.600 147.770 364.577 C 147.635 365.115,147.670 365.790,147.848 366.077 C 148.025 366.364,148.121 367.076,148.059 367.659 C 147.983 368.392,148.230 368.916,148.863 369.359 C 149.957 370.125,150.562 370.192,150.147 369.500 C 149.911 369.108,149.974 369.103,150.437 369.478 C 150.840 369.803,153.057 369.956,157.400 369.956 C 161.743 369.956,163.960 369.803,164.363 369.478 C 164.826 369.103,164.889 369.108,164.653 369.500 C 164.256 370.161,164.860 370.137,165.792 369.455 C 166.962 368.600,166.949 369.354,167.079 293.232 C 167.192 226.582,167.151 221.009,166.541 220.335 C 165.523 219.210,18.209 219.237,17.097 220.362 M187.941 219.869 C 187.535 219.976,187.203 220.609,187.075 221.521 C 186.804 223.444,186.935 369.468,187.207 369.741 C 187.531 370.065,189.589 370.331,192.045 370.367 C 194.217 370.399,194.283 370.432,194.098 371.400 C 193.970 372.071,194.087 372.402,194.453 372.406 C 194.903 372.411,194.900 372.476,194.436 372.769 C 193.518 373.350,194.610 375.455,196.097 375.974 C 197.624 376.506,198.118 376.514,197.800 376.000 C 197.664 375.780,197.743 375.600,197.976 375.600 C 198.209 375.600,198.400 375.804,198.400 376.052 C 198.400 376.346,198.893 376.425,199.809 376.276 C 200.584 376.150,201.123 376.201,201.007 376.389 C 200.891 376.577,209.564 376.752,220.282 376.778 C 235.101 376.814,239.851 376.942,240.115 377.313 C 240.386 377.694,240.505 377.691,240.664 377.300 C 240.777 377.021,241.257 377.551,241.751 378.500 C 242.356 379.665,243.168 380.472,244.328 381.063 C 245.259 381.538,245.791 382.008,245.510 382.109 C 243.145 382.952,245.573 383.073,268.563 383.258 C 284.526 383.386,285.739 383.445,285.910 384.098 C 286.147 385.007,286.795 385.008,286.816 384.100 C 286.825 383.666,287.034 383.856,287.365 384.600 C 287.998 386.026,289.426 387.413,290.771 387.911 C 291.732 388.266,291.733 388.272,290.870 388.498 C 290.391 388.623,290.084 388.589,290.187 388.421 C 290.290 388.254,289.930 387.914,289.387 387.667 C 288.843 387.419,288.046 386.638,287.616 385.931 C 286.950 384.835,286.794 384.750,286.562 385.354 C 286.226 386.231,287.646 388.223,288.552 388.145 C 288.904 388.115,289.105 388.231,288.998 388.402 C 288.357 389.440,293.225 389.699,316.790 389.883 C 328.335 389.974,337.858 390.124,337.951 390.218 C 338.045 390.312,338.106 390.971,338.085 391.683 C 338.065 392.394,338.263 393.241,338.524 393.565 C 338.897 394.026,338.891 394.088,338.500 393.853 C 337.733 393.392,337.906 394.169,338.800 395.200 C 339.319 395.798,339.602 395.925,339.606 395.561 C 339.611 395.087,339.666 395.086,339.961 395.551 C 340.165 395.872,340.522 395.972,340.817 395.789 C 341.129 395.597,341.224 395.638,341.064 395.896 C 340.646 396.572,388.280 396.594,389.114 395.918 C 389.647 395.486,389.697 395.494,389.415 395.962 C 389.185 396.343,389.225 396.432,389.538 396.238 C 390.477 395.658,390.170 220.519,389.229 220.016 C 388.477 219.613,189.458 219.468,187.941 219.869 M240.400 378.824 C 240.400 379.277,240.578 379.537,240.795 379.403 C 241.018 379.265,241.092 379.417,240.964 379.748 C 240.840 380.073,241.126 380.726,241.600 381.200 C 242.074 381.674,242.727 381.960,243.052 381.836 C 243.383 381.708,243.535 381.782,243.397 382.005 C 243.263 382.222,243.523 382.400,243.976 382.400 C 245.142 382.400,244.994 381.913,243.586 381.112 C 242.921 380.733,242.067 379.879,241.688 379.214 C 240.887 377.806,240.400 377.658,240.400 378.824"/><path id="path4" fill="#0ff" fill-rule="evenodd" stroke="none" d="M364.667 10.667 C 364.258 11.076,364.350 12.000,364.800 12.000 C 365.020 12.000,365.155 11.775,365.100 11.500 C 365.045 11.225,365.238 11.049,365.530 11.110 C 365.821 11.170,365.945 11.035,365.806 10.810 C 365.515 10.339,365.053 10.281,364.667 10.667 M364.000 13.776 C 364.000 14.559,364.070 15.200,364.155 15.200 C 364.483 15.200,364.649 12.754,364.333 12.559 C 364.150 12.445,364.000 12.993,364.000 13.776 M321.200 16.720 C 321.200 16.896,321.875 16.972,322.700 16.891 C 325.022 16.661,325.191 16.466,323.100 16.432 C 322.055 16.414,321.200 16.544,321.200 16.720 M318.880 17.280 C 318.319 17.841,318.241 18.800,318.756 18.800 C 318.951 18.800,319.086 18.485,319.056 18.100 C 319.021 17.661,319.261 17.421,319.700 17.456 C 320.085 17.486,320.400 17.351,320.400 17.156 C 320.400 16.641,319.441 16.719,318.880 17.280 M318.000 21.400 C 318.000 22.170,318.070 22.800,318.156 22.800 C 318.242 22.800,318.386 22.170,318.476 21.400 C 318.566 20.630,318.496 20.000,318.320 20.000 C 318.144 20.000,318.000 20.630,318.000 21.400 M293.521 23.099 C 295.788 23.170,299.388 23.170,301.521 23.098 C 303.655 23.026,301.800 22.968,297.400 22.968 C 293.000 22.968,291.255 23.027,293.521 23.099 M273.722 23.604 C 272.859 23.952,271.994 26.527,272.552 27.085 C 272.688 27.222,272.800 26.888,272.800 26.343 C 272.800 24.923,273.633 23.980,275.220 23.607 C 276.294 23.354,276.378 23.278,275.600 23.266 C 275.050 23.258,274.205 23.410,273.722 23.604 M230.173 29.959 C 230.895 30.242,232.800 30.093,232.800 29.753 C 232.800 29.669,232.035 29.613,231.100 29.628 C 229.897 29.648,229.626 29.745,230.173 29.959 M227.280 30.480 C 227.016 30.744,226.805 31.239,226.812 31.580 C 226.822 32.077,226.908 32.056,227.246 31.474 C 227.478 31.075,228.058 30.592,228.534 30.400 C 229.374 30.061,229.375 30.050,228.580 30.025 C 228.129 30.011,227.544 30.216,227.280 30.480 M226.428 33.900 C 226.450 35.043,226.530 35.211,226.766 34.606 C 227.052 33.875,226.910 32.400,226.553 32.400 C 226.469 32.400,226.413 33.075,226.428 33.900 M191.100 36.282 C 191.595 36.378,192.405 36.378,192.900 36.282 C 193.395 36.187,192.990 36.109,192.000 36.109 C 191.010 36.109,190.605 36.187,191.100 36.282 M187.680 36.880 C 187.096 37.464,187.058 38.000,187.600 38.000 C 187.820 38.000,187.955 37.775,187.900 37.500 C 187.845 37.225,188.025 37.045,188.300 37.100 C 188.575 37.155,188.800 37.020,188.800 36.800 C 188.800 36.258,188.264 36.296,187.680 36.880 M186.893 42.400 C 186.893 43.170,186.975 43.485,187.076 43.100 C 187.176 42.715,187.176 42.085,187.076 41.700 C 186.975 41.315,186.893 41.630,186.893 42.400 M136.800 43.716 C 135.711 44.266,134.833 46.302,134.866 48.200 C 134.883 49.148,134.960 49.032,135.232 47.648 C 135.686 45.339,136.562 44.067,137.905 43.771 C 139.665 43.383,139.864 43.265,138.800 43.237 C 138.250 43.223,137.350 43.439,136.800 43.716 M91.600 49.520 C 91.600 49.696,92.230 49.766,93.000 49.676 C 93.770 49.586,94.400 49.442,94.400 49.356 C 94.400 49.270,93.770 49.200,93.000 49.200 C 92.230 49.200,91.600 49.344,91.600 49.520 M89.280 50.080 C 89.016 50.344,88.814 50.929,88.832 51.380 C 88.857 52.034,88.947 51.971,89.274 51.073 C 89.534 50.360,89.889 50.025,90.242 50.161 C 90.549 50.279,90.800 50.201,90.800 49.987 C 90.800 49.446,89.856 49.504,89.280 50.080 M52.700 55.898 C 54.515 55.972,57.485 55.972,59.300 55.898 C 61.115 55.823,59.630 55.763,56.000 55.763 C 52.370 55.763,50.885 55.823,52.700 55.898 M76.707 55.890 C 77.426 55.979,78.506 55.977,79.107 55.886 C 79.708 55.795,79.120 55.722,77.800 55.724 C 76.480 55.726,75.988 55.801,76.707 55.890 M43.214 56.774 C 42.736 57.668,42.657 58.676,43.100 58.233 C 43.265 58.068,43.423 57.768,43.450 57.567 C 43.477 57.365,43.523 57.033,43.550 56.829 C 43.578 56.625,43.915 56.376,44.300 56.276 C 44.946 56.107,44.947 56.089,44.314 56.046 C 43.937 56.021,43.442 56.348,43.214 56.774 M20.300 350.682 C 20.795 350.778,21.605 350.778,22.100 350.682 C 22.595 350.587,22.190 350.509,21.200 350.509 C 20.210 350.509,19.805 350.587,20.300 350.682 M37.913 350.695 C 39.076 350.776,40.876 350.776,41.913 350.693 C 42.951 350.611,42.000 350.545,39.800 350.546 C 37.600 350.547,36.751 350.614,37.913 350.695 M49.632 354.638 C 49.593 355.659,50.784 356.811,51.831 356.768 C 52.410 356.745,52.335 356.640,51.525 356.343 C 50.933 356.127,50.273 355.467,50.057 354.875 C 49.723 353.964,49.658 353.927,49.632 354.638 M54.900 357.087 C 55.505 357.178,56.495 357.178,57.100 357.087 C 57.705 356.995,57.210 356.920,56.000 356.920 C 54.790 356.920,54.295 356.995,54.900 357.087 M95.646 358.840 C 95.532 361.426,97.086 363.255,99.319 363.164 C 100.007 363.136,99.930 363.049,98.967 362.770 C 97.339 362.297,96.339 361.134,95.983 359.299 C 95.761 358.156,95.681 358.047,95.646 358.840 M166.715 366.800 C 166.618 367.460,166.687 368.000,166.869 368.000 C 167.051 368.000,167.200 367.460,167.200 366.800 C 167.200 366.140,167.130 365.600,167.045 365.600 C 166.960 365.600,166.812 366.140,166.715 366.800 M148.000 369.209 C 148.000 369.438,148.278 369.732,148.617 369.862 C 149.555 370.222,149.666 369.833,148.782 369.281 C 148.287 368.972,148.000 368.946,148.000 369.209 M165.823 369.433 C 165.174 369.907,165.154 370.000,165.700 370.000 C 166.059 370.000,166.471 369.808,166.616 369.573 C 167.040 368.887,166.661 368.820,165.823 369.433 M150.662 370.100 C 150.764 370.265,153.796 370.400,157.400 370.400 C 161.004 370.400,164.036 370.265,164.138 370.100 C 164.240 369.935,161.208 369.800,157.400 369.800 C 153.592 369.800,150.560 369.935,150.662 370.100 M193.628 372.700 C 193.650 373.843,193.730 374.011,193.966 373.406 C 194.252 372.675,194.110 371.200,193.753 371.200 C 193.669 371.200,193.613 371.875,193.628 372.700 M194.012 374.820 C 193.995 375.688,194.810 376.405,195.780 376.375 C 196.575 376.350,196.574 376.339,195.734 376.000 C 195.258 375.808,194.678 375.325,194.446 374.926 C 194.108 374.344,194.022 374.323,194.012 374.820 M197.373 376.441 C 196.826 376.655,197.097 376.752,198.300 376.772 C 199.235 376.787,200.000 376.731,200.000 376.647 C 200.000 376.307,198.095 376.158,197.373 376.441 M240.034 379.718 C 239.989 381.201,241.601 382.812,243.082 382.764 L 244.200 382.728 242.950 382.366 C 241.503 381.946,240.879 381.298,240.407 379.726 L 240.069 378.600 240.034 379.718 M244.900 383.076 C 245.285 383.176,245.915 383.176,246.300 383.076 C 246.685 382.975,246.370 382.893,245.600 382.893 C 244.830 382.893,244.515 382.975,244.900 383.076 M264.123 383.499 C 266.941 383.568,271.441 383.568,274.123 383.499 C 276.805 383.430,274.500 383.373,269.000 383.373 C 263.500 383.374,261.305 383.430,264.123 383.499 M285.788 385.545 C 286.481 388.864,287.543 389.680,291.000 389.551 C 291.853 389.519,291.638 389.412,290.254 389.180 C 287.751 388.760,286.508 387.591,286.170 385.341 C 286.026 384.378,285.772 383.506,285.605 383.403 C 285.439 383.300,285.521 384.264,285.788 385.545 M293.905 389.883 C 294.402 389.979,295.122 389.975,295.505 389.875 C 295.887 389.775,295.480 389.696,294.600 389.701 C 293.720 389.705,293.407 389.787,293.905 389.883 M338.046 394.886 C 338.021 395.263,338.348 395.758,338.774 395.986 C 339.762 396.515,340.521 396.519,340.196 395.993 C 340.058 395.770,339.777 395.691,339.572 395.817 C 339.368 395.944,339.200 395.846,339.200 395.600 C 339.200 395.354,339.034 395.256,338.830 395.381 C 338.627 395.507,338.378 395.293,338.277 394.905 C 338.108 394.260,338.089 394.258,338.046 394.886"/></g></svg>