<svg xmlns="http://www.w3.org/2000/svg" width="1080" height="1080" preserveAspectRatio="xMidYMid meet" version="1.0" viewBox="0 0 16 16"><g id="layer101" fill="#000" stroke="none"><path d="M5000 7950 l0 -1060 -1565 0 -1565 0 0 -2545 0 -2545 2695 0 2695 0 -2 262 -3 262 -807 386 c-444 212 -807 388 -808 391 0 3 347 166 770 362 l771 357 135 15 c438 51 816 241 992 497 53 77 110 206 139 313 25 94 27 113 27 315 0 236 -7 281 -74 447 -86 213 -308 450 -537 570 -86 45 -94 67 -30 83 568 142 932 477 1052 970 74 308 49 687 -65 970 -187 466 -645 820 -1215 939 -290 61 -529 71 -1697 71 l-908 0 0 -1060z m2040 450 c320 -23 514 -65 685 -150 233 -115 394 -300 455 -525 17 -61 23 -119 27 -245 8 -250 -15 -389 -89 -539 -90 -186 -319 -348 -576 -407 -191 -44 -243 -47 -1064 -51 l-788 -4 0 965 0 966 603 0 c331 0 667 -5 747 -10z m-2040 -3055 l0 -945 -1230 0 -1230 0 0 945 0 945 1230 0 1230 0 0 -945z m2070 531 c217 -39 366 -107 490 -223 93 -87 140 -169 177 -311 22 -84 26 -118 26 -257 1 -125 -3 -174 -17 -225 -51 -186 -173 -309 -376 -381 -190 -67 -352 -79 -1097 -79 l-583 0 0 751 0 751 643 -5 c548 -3 656 -6 737 -21z m-695 -2102 c-27 -14 -309 -148 -625 -298 l-575 -272 0 -124 0 -124 495 -233 c272 -128 538 -253 590 -278 l95 -44 -1907 -1 -1908 0 0 700 0 700 1943 -1 1942 0 -50 -25z"/></g></svg>