<svg width="24" height="26" viewBox="0 0 24 26" xmlns="http://www.w3.org/2000/svg"><title>Android</title><path d="M14.998 5.17a.76.76 0 0 1-.771-.751.76.76 0 0 1 .771-.75.76.76 0 0 1 .772.75.76.76 0 0 1-.772.75zm-6.167 0a.76.76 0 0 1-.772-.751.76.76 0 0 1 .772-.75.76.76 0 0 1 .771.75.76.76 0 0 1-.771.75zm6.623-3.006c2.18.99 3.655 2.863 3.655 5.007H4.72c0-2.144 1.476-4.018 3.657-5.007l-.288-.423-.288-.416-.64-.936a.247.247 0 0 1 .072-.347.263.263 0 0 1 .357.07l.687 1.003.29.421.291.429a8.659 8.659 0 0 1 3.058-.547c1.093 0 2.128.196 3.057.547l.293-.429.978-1.424a.258.258 0 0 1 .354-.07.244.244 0 0 1 .072.347l-.64.936-.287.416-.288.423zM4.83 8.17h14.28v11.005c0 .874-.728 1.585-1.628 1.585h-1.175c.04.133.064.27.064.417v3.168c0 .828-.692 1.5-1.544 1.5-.851 0-1.542-.672-1.542-1.5v-3.168c0-.146.022-.284.061-.417h-2.863c.039.133.062.27.062.417v3.168c0 .828-.692 1.5-1.542 1.5-.851 0-1.543-.672-1.543-1.5v-3.168c0-.146.022-.284.062-.417H6.348c-.9 0-1.628-.71-1.628-1.585V8.171h.11zm-2.68 0c.85 0 1.54.672 1.54 1.5v6.42c0 .829-.69 1.5-1.54 1.5-.853 0-1.543-.671-1.543-1.5V9.67c0-.828.69-1.5 1.543-1.5zm19.531 0c.851 0 1.541.672 1.541 1.5v6.42c0 .829-.69 1.5-1.54 1.5-.853 0-1.544-.671-1.544-1.5V9.67c0-.828.69-1.5 1.543-1.5z" fill="#A6ADC9" fill-rule="evenodd"/></svg>