<svg xmlns="http://www.w3.org/2000/svg" xmlns:xlink="http://www.w3.org/1999/xlink" id="svg" width="400" height="400" version="1.1" viewBox="0 0 400 400"><g id="svgg"><path id="path0" fill="#a8a8a8" fill-rule="evenodd" stroke="none" d="M153.793 104.859 C 153.005 105.552,152.078 106.677,151.734 107.359 C 150.853 109.107,149.244 110.748,147.562 111.613 C 146.128 112.351,143.600 114.895,143.600 115.600 C 143.600 116.316,141.062 118.854,139.600 119.600 C 138.788 120.014,137.556 121.000,136.862 121.790 L 135.600 123.228 135.600 131.434 C 135.600 141.265,135.828 140.637,130.218 146.247 C 126.944 149.521,125.515 150.635,122.905 151.947 C 121.120 152.845,119.377 153.983,119.030 154.478 C 118.157 155.724,118.076 187.251,118.940 189.319 C 119.537 190.748,122.102 193.200,123.000 193.200 C 123.962 193.200,126.325 195.560,126.798 196.994 C 127.277 198.444,130.021 201.200,130.987 201.200 C 131.309 201.200,132.180 201.733,132.922 202.385 L 134.272 203.571 134.532 211.633 C 134.824 220.684,135.243 222.171,137.953 223.795 C 138.692 224.238,140.040 225.262,140.948 226.071 L 142.600 227.542 142.846 246.271 C 142.982 256.572,143.114 274.856,143.140 286.902 L 143.187 308.804 144.831 310.587 C 145.734 311.567,146.862 312.486,147.337 312.628 C 147.812 312.771,148.875 313.534,149.700 314.325 L 151.200 315.762 151.200 324.403 C 151.200 334.347,151.595 335.818,155.034 338.693 C 157.841 341.040,158.800 344.377,159.201 353.200 C 159.664 363.388,159.831 363.931,163.629 367.628 C 167.180 371.085,167.126 370.941,167.303 377.400 C 167.453 382.901,168.244 385.034,171.391 388.420 C 173.432 390.616,174.856 394.095,175.108 397.500 C 175.289 399.946,175.318 400.000,176.447 400.000 C 179.247 400.000,176.836 388.708,173.387 385.672 C 170.330 382.981,169.829 381.705,169.591 375.990 C 169.335 369.877,168.264 367.099,165.461 365.283 C 162.714 363.504,161.766 360.137,161.437 351.000 C 161.113 341.965,160.090 338.468,157.262 336.716 C 156.526 336.260,155.401 335.166,154.762 334.284 L 153.600 332.680 153.591 324.440 C 153.580 314.188,153.087 312.689,149.185 311.048 C 148.423 310.728,147.295 309.936,146.678 309.288 L 145.556 308.110 145.774 289.355 C 146.125 259.155,145.996 227.584,145.514 226.000 C 144.820 223.714,143.603 222.357,141.358 221.365 C 139.016 220.329,139.188 220.718,138.405 214.671 C 138.182 212.950,137.997 209.620,137.993 207.271 C 137.985 201.610,137.358 200.388,133.443 198.400 C 130.850 197.083,130.611 196.845,129.443 194.400 C 128.280 191.968,128.035 191.720,125.644 190.567 C 121.735 188.682,122.000 190.034,122.000 171.953 L 122.000 156.058 122.995 155.275 C 123.543 154.845,124.758 154.376,125.695 154.234 C 128.108 153.869,130.338 152.484,131.769 150.461 C 132.446 149.504,133.720 148.236,134.600 147.643 C 137.887 145.426,138.183 144.307,138.326 133.546 C 138.468 122.855,138.410 123.045,141.845 122.068 C 143.939 121.473,145.473 119.939,146.068 117.845 C 146.698 115.630,147.642 114.662,149.712 114.108 C 151.880 113.528,153.462 111.980,154.068 109.845 C 154.939 106.782,155.597 106.400,160.000 106.400 C 164.403 106.400,165.061 106.782,165.932 109.845 C 166.527 111.939,168.061 113.473,170.155 114.068 C 172.003 114.593,173.600 115.834,173.600 116.743 C 173.600 120.503,176.839 122.400,183.257 122.400 C 188.048 122.400,189.600 122.987,189.600 124.799 C 189.600 126.342,191.313 128.783,192.950 129.576 C 195.176 130.654,244.358 130.861,249.300 129.814 C 251.642 129.318,252.358 129.318,254.700 129.814 C 256.185 130.129,257.954 130.389,258.630 130.393 C 261.536 130.409,261.600 130.719,261.600 144.799 C 261.600 159.348,261.734 160.019,264.950 161.576 C 269.067 163.569,274.400 160.837,274.400 156.736 C 274.400 155.420,275.900 154.585,276.800 155.400 C 277.574 156.101,277.600 156.632,277.600 171.992 L 277.600 187.861 276.700 188.681 C 276.205 189.132,275.136 189.714,274.325 189.974 C 272.123 190.678,270.942 191.794,270.165 193.904 C 269.307 196.233,268.235 197.485,266.834 197.793 C 262.965 198.642,261.621 201.121,261.609 207.430 C 261.599 212.492,261.385 212.883,257.949 214.148 C 254.494 215.419,253.600 217.346,253.600 223.517 C 253.600 228.482,253.377 228.886,249.949 230.148 C 245.774 231.684,245.600 232.399,245.600 248.007 C 245.600 263.306,245.893 264.326,250.505 265.063 C 251.537 265.228,252.546 265.773,253.396 266.623 L 254.703 267.929 254.527 276.465 C 254.285 288.265,253.559 291.327,250.539 293.283 C 249.370 294.041,248.542 295.045,247.739 296.680 L 246.600 299.000 246.479 311.600 L 246.357 324.200 245.279 325.333 C 244.685 325.956,243.577 326.728,242.815 327.048 C 238.932 328.680,238.420 330.213,238.409 340.222 L 238.400 348.243 237.100 349.459 C 236.385 350.127,235.233 350.897,234.540 351.169 C 231.021 352.552,230.400 354.521,230.400 364.309 L 230.400 372.243 229.100 373.459 C 228.385 374.127,227.233 374.897,226.540 375.169 C 223.520 376.355,222.400 378.866,222.400 384.449 C 222.400 390.363,220.926 392.373,218.306 390.033 L 217.000 388.866 216.800 368.102 L 216.600 347.337 215.545 345.955 C 214.965 345.194,213.647 344.138,212.615 343.608 C 207.950 341.209,207.950 338.791,212.615 336.392 C 214.352 335.499,216.400 333.422,216.400 332.553 C 216.400 331.718,218.843 329.303,220.606 328.397 C 224.026 326.638,224.600 325.431,224.600 320.000 C 224.600 314.575,224.025 313.362,220.626 311.613 C 219.600 311.086,218.185 309.961,217.481 309.114 C 213.023 303.754,213.477 304.055,208.200 302.940 C 202.755 301.789,197.734 301.791,190.000 302.950 C 187.690 303.296,184.379 303.790,182.642 304.048 C 178.002 304.736,176.688 306.122,176.006 311.051 C 175.243 316.572,173.579 319.600,171.309 319.600 C 170.254 319.600,167.600 322.749,167.600 324.000 C 167.600 325.311,170.275 328.400,171.411 328.400 C 172.126 328.400,175.600 331.760,175.600 332.452 C 175.600 333.411,177.564 335.455,179.385 336.392 C 180.417 336.923,181.697 337.876,182.231 338.509 L 183.200 339.661 183.200 369.831 L 183.200 400.000 184.600 400.000 L 186.000 400.000 186.000 369.587 C 186.000 344.806,185.899 338.933,185.454 337.868 C 184.787 336.272,182.820 334.556,181.266 334.214 C 179.795 333.892,178.230 332.217,177.624 330.320 C 177.069 328.583,174.954 326.585,173.280 326.218 C 172.631 326.075,171.686 325.518,171.181 324.979 L 170.261 324.000 171.181 323.021 C 171.686 322.482,172.631 321.925,173.280 321.782 C 176.219 321.137,177.522 318.985,179.025 312.292 C 179.409 310.583,179.925 308.908,180.173 308.570 C 181.899 306.209,199.209 304.763,208.280 306.223 C 212.914 306.969,212.580 306.788,213.608 309.112 C 214.713 311.610,215.749 312.643,217.960 313.456 C 221.495 314.754,222.000 315.572,222.000 320.000 C 222.000 324.354,221.401 325.392,218.320 326.376 C 216.585 326.930,214.585 329.046,214.219 330.714 C 213.892 332.203,212.226 333.767,210.320 334.376 C 204.853 336.122,204.853 343.878,210.320 345.624 C 211.134 345.884,212.295 346.558,212.900 347.123 L 214.000 348.150 214.000 368.488 C 214.000 390.740,213.976 390.499,216.357 392.503 C 221.056 396.457,224.781 392.694,224.794 383.981 L 224.800 379.762 226.300 378.325 C 227.125 377.534,228.188 376.771,228.663 376.628 C 229.138 376.486,230.263 375.570,231.163 374.594 L 232.800 372.818 232.800 364.290 L 232.800 355.762 234.300 354.325 C 235.125 353.534,236.188 352.771,236.663 352.628 C 237.138 352.486,238.263 351.570,239.163 350.594 L 240.800 348.818 240.800 340.290 L 240.800 331.762 242.300 330.325 C 243.125 329.534,244.188 328.771,244.663 328.628 C 245.138 328.486,246.263 327.570,247.163 326.594 L 248.800 324.818 248.803 312.309 C 248.806 297.954,248.552 299.035,252.818 295.197 C 256.300 292.064,256.478 291.276,256.694 278.000 L 256.867 267.400 255.924 266.000 C 255.386 265.201,254.008 264.081,252.712 263.390 C 251.464 262.724,249.983 261.748,249.421 261.220 L 248.400 260.261 248.400 247.961 L 248.400 235.661 249.450 234.413 C 250.028 233.727,251.165 232.826,251.978 232.411 C 252.790 231.997,254.117 230.924,254.927 230.028 L 256.400 228.398 256.400 224.030 C 256.400 219.098,256.932 217.965,259.978 216.411 C 260.790 215.997,262.117 214.924,262.927 214.028 L 264.400 212.398 264.400 208.030 C 264.400 203.098,264.932 201.965,267.978 200.411 C 269.525 199.622,271.640 197.406,273.005 195.144 C 273.448 194.410,274.426 193.448,275.178 193.005 C 275.931 192.562,277.413 191.371,278.473 190.357 L 280.400 188.514 280.400 172.100 L 280.400 155.687 278.563 153.643 C 276.081 150.883,273.684 151.485,271.735 155.359 C 269.810 159.184,267.926 159.901,265.847 157.599 L 264.400 155.998 264.400 143.583 L 264.400 131.169 262.900 129.568 C 261.835 128.430,260.592 127.674,258.613 126.958 C 257.080 126.404,254.965 125.332,253.913 124.576 L 252.000 123.201 250.043 124.608 C 245.801 127.655,246.359 127.600,219.751 127.600 L 196.028 127.600 194.590 126.338 C 193.800 125.644,192.814 124.412,192.400 123.600 C 190.715 120.296,189.322 119.600,184.400 119.600 C 179.478 119.600,178.085 118.904,176.400 115.600 C 175.654 114.138,173.116 111.600,172.400 111.600 C 171.684 111.600,169.146 109.062,168.400 107.600 C 167.986 106.788,167.000 105.556,166.210 104.862 L 164.772 103.600 160.000 103.600 L 155.228 103.600 153.793 104.859"/><path id="path1" fill="#275d71" fill-rule="evenodd" stroke="none" d="M182.000 54.788 C 174.762 54.927,170.726 55.158,170.200 55.463 C 168.950 56.187,167.693 57.682,167.052 59.205 C 166.172 61.299,164.477 62.676,162.400 62.986 C 158.309 63.597,155.645 64.789,153.464 66.988 C 150.248 70.229,148.825 70.799,143.916 70.807 C 138.839 70.815,137.176 71.558,135.557 74.544 C 134.240 76.973,132.973 78.240,130.544 79.557 C 127.540 81.186,126.815 82.828,126.807 88.022 L 126.800 92.243 125.500 93.474 C 124.785 94.151,123.515 95.021,122.677 95.409 C 121.840 95.796,120.670 96.748,120.077 97.524 L 119.000 98.936 118.673 123.307 C 118.308 150.536,118.106 148.405,121.190 149.795 C 123.131 150.671,125.229 149.818,126.677 147.565 C 128.348 144.966,129.289 143.971,130.807 143.196 C 133.858 141.640,134.000 141.137,134.000 131.887 C 134.000 121.625,134.639 119.864,138.909 118.363 C 140.682 117.740,141.671 116.730,142.398 114.800 C 143.140 112.834,144.974 111.003,146.810 110.397 C 148.625 109.798,149.658 108.762,150.399 106.800 C 151.780 103.141,154.063 102.000,160.000 102.000 C 165.937 102.000,168.220 103.141,169.601 106.800 C 170.342 108.762,171.375 109.798,173.190 110.397 C 175.026 111.003,176.860 112.834,177.602 114.800 C 178.707 117.733,179.243 118.000,184.021 118.000 C 189.936 118.000,192.221 119.145,193.601 122.800 C 193.892 123.570,194.492 124.605,194.934 125.100 L 195.739 126.000 219.883 126.000 C 247.455 126.000,245.574 126.232,249.245 122.385 C 252.044 119.453,251.893 119.450,254.918 122.518 C 256.898 124.526,257.926 125.223,260.000 125.962 C 265.815 128.034,266.000 128.589,266.000 143.979 L 266.000 156.261 267.000 157.200 L 268.000 158.139 268.916 157.278 C 269.421 156.805,270.072 155.739,270.363 154.909 C 271.683 151.154,274.619 149.575,277.957 150.824 C 282.870 152.663,282.780 152.272,282.791 171.827 C 282.802 191.674,282.457 193.257,277.910 194.205 C 275.702 194.666,274.905 195.435,274.231 197.754 C 273.518 200.205,272.000 201.769,269.910 202.205 C 266.999 202.812,266.800 203.167,266.800 207.737 C 266.800 214.434,265.376 217.482,261.910 218.205 C 258.998 218.813,258.800 219.166,258.800 223.746 C 258.800 230.609,257.594 233.114,253.752 234.231 C 250.636 235.137,250.776 234.452,250.894 248.239 L 251.000 260.581 252.200 260.932 C 258.051 262.643,258.998 263.979,258.628 270.000 C 258.500 272.090,258.233 277.869,258.035 282.843 C 257.591 293.979,257.241 294.972,253.000 297.115 C 250.024 298.619,250.000 298.745,250.000 312.575 C 250.000 327.294,249.735 328.331,245.635 329.639 C 244.846 329.891,243.705 330.558,243.100 331.123 L 242.000 332.150 242.000 340.488 C 242.000 350.855,241.483 352.411,237.635 353.639 C 236.846 353.891,235.705 354.558,235.100 355.123 L 234.000 356.150 234.000 364.549 C 234.000 374.456,233.666 375.716,230.650 377.176 C 229.713 377.629,228.768 378.000,228.549 378.000 C 226.788 378.000,226.081 380.092,225.845 386.000 C 225.717 389.190,225.510 393.645,225.385 395.900 L 225.157 400.000 312.579 400.000 L 400.000 400.000 400.000 228.000 L 400.000 56.000 397.899 56.000 L 395.798 56.000 360.006 91.794 L 324.214 127.587 323.604 126.294 C 322.945 124.899,321.630 124.495,317.535 124.430 L 315.670 124.400 315.390 122.700 C 314.740 118.749,313.584 117.547,309.908 116.995 C 307.766 116.674,307.409 116.356,306.998 114.400 C 306.335 111.246,304.073 109.233,301.162 109.209 C 299.932 109.198,299.016 108.257,298.623 106.600 C 298.078 104.306,296.583 102.889,293.800 102.029 C 290.856 101.120,289.200 100.157,289.200 99.355 C 289.200 97.222,284.124 94.354,277.553 92.776 C 275.867 92.370,275.664 92.189,275.217 90.699 C 274.537 88.429,272.961 87.013,270.175 86.168 C 266.492 85.052,266.486 85.041,266.333 79.668 C 266.104 71.640,264.759 70.314,256.600 70.076 C 251.282 69.921,250.305 69.498,249.782 67.120 C 249.009 63.599,245.375 61.754,239.969 62.138 C 235.674 62.443,234.905 62.098,233.593 59.275 C 232.499 56.921,231.359 55.650,229.713 54.948 C 228.364 54.374,207.129 54.302,182.000 54.788 M137.400 261.796 C 135.407 262.508,134.161 263.912,133.576 266.106 C 132.978 268.354,132.309 269.027,130.127 269.577 C 127.835 270.154,126.201 271.762,125.595 274.037 C 125.012 276.227,124.275 277.078,122.659 277.426 C 119.618 278.080,117.900 279.842,117.396 282.823 C 116.890 285.818,116.522 285.929,106.600 286.073 C 96.394 286.220,95.068 286.588,91.055 290.384 C 87.317 293.918,85.511 294.400,75.992 294.400 C 66.046 294.400,65.020 294.760,62.889 299.000 C 61.924 300.920,60.936 301.860,58.476 303.195 C 57.458 303.748,56.260 304.779,55.813 305.487 C 55.366 306.195,54.640 307.358,54.200 308.072 C 53.453 309.284,52.908 309.718,49.525 311.800 C 47.149 313.263,46.414 315.205,46.407 320.046 C 46.399 324.970,46.125 325.528,42.616 327.772 C 39.110 330.016,38.836 330.958,38.201 343.000 C 37.910 348.519,37.271 350.508,35.562 351.216 C 34.304 351.737,31.216 354.885,31.172 355.691 C 31.135 356.375,30.946 357.693,30.438 360.795 C 30.205 362.222,29.892 368.612,29.743 374.995 C 29.594 381.378,29.355 387.050,29.211 387.600 C 28.983 388.472,26.490 390.199,26.057 389.785 C 25.881 389.616,25.040 390.271,23.655 391.655 C 21.624 393.687,21.500 393.991,21.285 397.500 L 21.132 400.000 97.566 400.000 L 174.000 400.000 173.991 398.100 C 173.979 395.467,172.793 393.108,170.256 390.672 C 167.064 387.608,166.310 385.332,166.124 378.200 C 165.953 371.643,165.521 370.377,163.019 369.120 C 158.785 366.993,158.381 365.888,158.011 355.427 C 157.661 345.527,157.425 344.647,154.156 341.071 C 150.318 336.873,150.220 336.503,150.075 325.600 L 149.949 316.200 148.900 315.100 C 148.323 314.495,147.671 314.000,147.451 314.000 C 146.044 314.000,143.583 312.218,142.824 310.650 C 142.024 308.998,141.999 308.316,141.979 287.574 C 141.954 261.250,141.774 260.236,137.400 261.796"/><path id="path2" fill="#a458a2" fill-rule="evenodd" stroke="none" d="M154.309 102.549 C 152.606 103.304,150.964 105.091,150.398 106.806 C 149.798 108.625,148.762 109.658,146.800 110.398 C 144.834 111.140,143.003 112.974,142.397 114.810 C 141.798 116.625,140.762 117.658,138.800 118.399 C 134.604 119.983,134.000 121.681,134.000 131.887 C 134.000 141.137,133.858 141.640,130.807 143.196 C 129.301 143.965,128.392 144.921,126.677 147.541 C 125.986 148.596,124.530 149.759,123.291 150.243 C 123.230 150.266,123.293 150.577,123.430 150.933 C 123.925 152.223,127.246 149.764,129.074 146.754 C 129.423 146.179,130.179 145.423,130.754 145.074 C 135.235 142.354,135.600 141.325,135.600 131.434 L 135.600 123.228 136.862 121.790 C 137.556 121.000,138.788 120.014,139.600 119.600 C 141.062 118.854,143.600 116.316,143.600 115.600 C 143.600 114.933,146.088 112.375,147.359 111.734 C 149.107 110.853,150.748 109.244,151.613 107.562 C 152.020 106.771,153.000 105.556,153.790 104.862 L 155.228 103.600 160.000 103.600 L 164.772 103.600 166.210 104.862 C 167.000 105.556,167.986 106.788,168.400 107.600 C 169.146 109.062,171.684 111.600,172.400 111.600 C 173.116 111.600,175.654 114.138,176.400 115.600 C 178.085 118.904,179.478 119.600,184.400 119.600 C 189.322 119.600,190.715 120.296,192.400 123.600 C 192.814 124.412,193.800 125.644,194.590 126.338 L 196.028 127.600 219.751 127.600 C 246.359 127.600,245.801 127.655,250.043 124.608 L 252.000 123.201 253.913 124.576 C 254.965 125.332,257.080 126.404,258.613 126.958 C 260.592 127.674,261.835 128.430,262.900 129.568 L 264.400 131.169 264.400 143.583 L 264.400 155.998 265.847 157.599 C 266.642 158.479,267.611 159.200,268.000 159.200 C 268.721 159.200,271.600 156.321,271.600 155.600 C 271.600 154.782,274.503 152.028,275.826 151.591 C 277.347 151.089,277.586 150.576,276.464 150.220 C 274.620 149.635,271.328 152.165,270.363 154.909 C 270.072 155.739,269.421 156.805,268.916 157.278 L 268.000 158.139 267.000 157.200 L 266.000 156.261 266.000 143.979 C 266.000 128.589,265.815 128.034,260.000 125.962 C 257.926 125.223,256.898 124.526,254.918 122.518 C 251.893 119.450,252.044 119.453,249.245 122.385 C 245.574 126.232,247.455 126.000,219.883 126.000 L 195.739 126.000 194.934 125.100 C 194.492 124.605,193.892 123.570,193.601 122.800 C 192.221 119.145,189.936 118.000,184.021 118.000 C 179.243 118.000,178.707 117.733,177.602 114.800 C 176.860 112.834,175.026 111.003,173.190 110.397 C 171.375 109.798,170.342 108.762,169.601 106.800 C 168.908 104.965,167.329 103.273,165.651 102.567 C 163.963 101.857,155.898 101.844,154.309 102.549 M142.044 269.614 L 142.089 272.600 142.661 270.231 C 143.169 268.127,143.164 267.792,142.616 267.245 C 142.061 266.690,142.004 266.925,142.044 269.614 M189.800 306.033 C 181.561 306.868,180.046 307.749,179.025 312.292 C 177.522 318.985,176.219 321.137,173.280 321.782 C 172.631 321.925,171.686 322.482,171.181 323.021 L 170.261 324.000 171.181 324.979 C 171.686 325.518,172.631 326.075,173.280 326.218 C 174.954 326.585,177.069 328.583,177.624 330.320 C 178.230 332.217,179.795 333.892,181.266 334.214 C 182.820 334.556,184.787 336.272,185.454 337.868 C 185.899 338.933,186.000 344.806,186.000 369.587 L 186.000 400.000 205.600 400.000 L 225.200 400.000 225.252 397.700 C 225.353 393.274,225.459 391.789,225.770 390.452 L 226.085 389.104 224.604 390.743 C 221.437 394.248,219.040 394.760,216.357 392.503 C 213.976 390.499,214.000 390.740,214.000 368.488 L 214.000 348.150 212.900 347.123 C 212.295 346.558,211.134 345.884,210.320 345.624 C 204.853 343.878,204.853 336.122,210.320 334.376 C 212.226 333.767,213.892 332.203,214.219 330.714 C 214.585 329.046,216.585 326.930,218.320 326.376 C 221.401 325.392,222.000 324.354,222.000 320.000 C 222.000 315.572,221.495 314.754,217.960 313.456 C 215.749 312.643,214.713 311.610,213.608 309.112 C 212.580 306.788,212.914 306.969,208.280 306.223 C 204.147 305.558,195.378 305.468,189.800 306.033"/><path id="path3" fill="#4c8daf" fill-rule="evenodd" stroke="none" d="M0.000 200.000 L 0.000 400.000 10.566 400.000 L 21.132 400.000 21.285 397.500 C 21.500 393.991,21.624 393.687,23.655 391.655 C 25.040 390.271,25.881 389.616,26.057 389.785 C 26.490 390.199,28.983 388.472,29.211 387.600 C 29.355 387.050,29.594 381.378,29.743 374.995 C 29.892 368.612,30.205 362.222,30.438 360.795 C 30.946 357.693,31.135 356.375,31.172 355.691 C 31.216 354.885,34.304 351.737,35.562 351.216 C 37.271 350.508,37.910 348.519,38.201 343.000 C 38.836 330.958,39.110 330.016,42.616 327.772 C 46.116 325.533,46.400 324.960,46.400 320.130 C 46.400 314.491,47.256 312.771,51.000 310.889 C 52.920 309.924,53.860 308.936,55.195 306.476 C 55.748 305.458,56.779 304.260,57.487 303.813 C 58.195 303.366,59.358 302.640,60.072 302.200 C 61.284 301.453,61.718 300.908,63.800 297.525 C 65.508 294.750,66.813 294.414,75.908 294.407 C 85.521 294.399,87.312 293.923,91.055 290.384 C 95.068 286.588,96.394 286.220,106.600 286.073 C 116.522 285.929,116.890 285.818,117.396 282.823 C 117.900 279.842,119.618 278.080,122.659 277.426 C 124.275 277.078,125.012 276.227,125.595 274.037 C 126.201 271.762,127.835 270.154,130.127 269.577 C 132.323 269.024,132.978 268.356,133.595 266.037 C 134.188 263.810,135.788 262.196,137.988 261.603 C 140.017 261.057,140.056 261.089,141.207 264.294 C 142.439 267.724,144.241 268.374,143.167 265.000 C 143.097 264.780,142.941 256.262,142.820 246.071 L 142.600 227.542 140.948 226.071 C 140.040 225.262,138.692 224.238,137.953 223.795 C 135.243 222.171,134.824 220.684,134.532 211.633 L 134.272 203.571 132.922 202.385 C 132.180 201.733,131.309 201.200,130.987 201.200 C 130.021 201.200,127.277 198.444,126.798 196.994 C 126.325 195.560,123.962 193.200,123.000 193.200 C 122.102 193.200,119.537 190.748,118.940 189.319 C 118.516 188.304,118.400 184.507,118.400 171.702 C 118.400 153.258,118.222 154.312,121.628 152.586 C 124.087 151.339,124.088 151.032,121.629 149.974 C 118.036 148.429,118.304 150.843,118.673 123.307 L 119.000 98.936 120.077 97.524 C 120.670 96.748,121.840 95.796,122.677 95.409 C 123.515 95.021,124.785 94.151,125.500 93.474 L 126.800 92.243 126.807 88.022 C 126.815 82.828,127.540 81.186,130.544 79.557 C 132.973 78.240,134.240 76.973,135.557 74.544 C 137.176 71.558,138.839 70.815,143.916 70.807 C 148.825 70.799,150.248 70.229,153.464 66.988 C 155.645 64.789,158.309 63.597,162.400 62.986 C 164.477 62.676,166.172 61.299,167.052 59.205 C 167.749 57.546,169.008 56.128,170.446 55.380 C 171.604 54.777,225.584 54.008,228.488 54.553 C 230.517 54.933,232.278 56.520,233.473 59.044 C 234.928 62.118,235.618 62.447,239.969 62.138 C 245.375 61.754,249.009 63.599,249.782 67.120 C 250.305 69.498,251.282 69.921,256.600 70.076 C 264.759 70.314,266.104 71.640,266.333 79.668 C 266.486 85.041,266.492 85.052,270.175 86.168 C 272.961 87.013,274.537 88.429,275.217 90.699 C 275.664 92.189,275.867 92.370,277.553 92.776 C 284.124 94.354,289.200 97.222,289.200 99.355 C 289.200 100.157,290.856 101.120,293.800 102.029 C 296.583 102.889,298.078 104.306,298.623 106.600 C 299.016 108.257,299.932 109.198,301.162 109.209 C 304.073 109.233,306.335 111.246,306.998 114.400 C 307.409 116.356,307.766 116.674,309.908 116.995 C 313.584 117.547,314.740 118.749,315.390 122.700 L 315.670 124.400 317.535 124.430 C 321.630 124.495,322.945 124.899,323.604 126.294 L 324.214 127.587 360.006 91.794 L 395.798 56.000 397.899 56.000 L 400.000 56.000 400.000 28.000 L 400.000 0.000 200.000 0.000 L 0.000 0.000 0.000 200.000 M130.400 145.313 C 130.070 145.581,129.537 146.160,129.215 146.600 C 128.894 147.040,129.209 146.871,129.915 146.225 C 131.067 145.172,131.400 144.775,131.100 144.813 C 131.045 144.820,130.730 145.045,130.400 145.313 M276.893 151.059 C 276.559 151.199,277.074 152.025,278.393 153.468 L 280.400 155.664 280.400 172.089 L 280.400 188.514 278.473 190.357 C 277.413 191.371,275.931 192.562,275.178 193.005 C 274.426 193.448,273.448 194.410,273.005 195.144 C 271.640 197.406,269.525 199.622,267.978 200.411 C 264.932 201.965,264.400 203.098,264.400 208.030 L 264.400 212.398 262.927 214.028 C 262.117 214.924,260.790 215.997,259.978 216.411 C 256.932 217.965,256.400 219.098,256.400 224.030 L 256.400 228.398 254.927 230.028 C 254.117 230.924,252.790 231.997,251.978 232.411 C 251.165 232.826,250.028 233.727,249.450 234.413 L 248.400 235.661 248.400 247.961 L 248.400 260.261 249.421 261.220 C 249.983 261.748,251.464 262.724,252.712 263.390 C 254.008 264.081,255.386 265.201,255.924 266.000 L 256.867 267.400 256.694 278.000 C 256.478 291.276,256.300 292.064,252.818 295.197 C 248.552 299.035,248.806 297.954,248.803 312.309 L 248.800 324.818 247.163 326.594 C 246.263 327.570,245.138 328.486,244.663 328.628 C 244.188 328.771,243.125 329.534,242.300 330.325 L 240.800 331.762 240.800 340.290 L 240.800 348.818 239.163 350.594 C 238.263 351.570,237.138 352.486,236.663 352.628 C 236.188 352.771,235.125 353.534,234.300 354.325 L 232.800 355.762 232.800 364.280 L 232.800 372.798 231.300 374.460 C 230.475 375.374,229.260 376.351,228.600 376.630 C 225.561 377.916,224.877 379.308,224.690 384.600 C 224.596 387.240,224.388 389.850,224.228 390.400 L 223.936 391.400 224.968 390.278 C 225.950 389.210,226.000 388.936,226.000 384.653 C 226.000 379.584,226.488 378.643,229.635 377.639 C 233.483 376.411,234.000 374.855,234.000 364.488 L 234.000 356.150 235.100 355.123 C 235.705 354.558,236.846 353.891,237.635 353.639 C 241.483 352.411,242.000 350.855,242.000 340.488 L 242.000 332.150 243.100 331.123 C 243.705 330.558,244.846 329.891,245.635 329.639 C 249.736 328.330,250.000 327.296,250.000 312.560 C 250.000 298.731,250.065 298.404,253.140 296.826 C 257.025 294.834,257.604 293.129,258.044 282.404 C 258.237 277.672,258.501 272.090,258.629 270.000 C 258.997 263.978,258.050 262.643,252.200 260.932 L 251.000 260.581 250.894 248.239 C 250.776 234.452,250.636 235.137,253.752 234.231 C 257.594 233.114,258.800 230.609,258.800 223.746 C 258.800 219.166,258.998 218.813,261.910 218.205 C 265.376 217.482,266.800 214.434,266.800 207.737 C 266.800 203.167,266.999 202.812,269.910 202.205 C 272.000 201.769,273.518 200.205,274.231 197.754 C 274.905 195.435,275.702 194.666,277.910 194.205 C 279.943 193.781,281.507 192.208,282.193 189.897 C 283.207 186.484,283.065 156.423,282.025 154.131 C 281.010 151.897,278.492 150.389,276.893 151.059 M142.500 271.024 C 141.540 275.677,141.809 308.553,142.824 310.650 C 143.583 312.218,146.044 314.000,147.451 314.000 C 147.671 314.000,148.323 314.495,148.900 315.100 L 149.949 316.200 150.075 325.600 C 150.220 336.503,150.318 336.873,154.156 341.071 C 157.396 344.616,157.661 345.572,158.006 355.000 C 158.374 365.050,159.006 366.850,162.860 368.826 C 165.455 370.158,165.897 371.412,166.094 378.000 C 166.313 385.354,167.049 387.594,170.256 390.672 C 172.793 393.108,173.979 395.467,173.991 398.100 C 173.998 399.579,174.143 400.000,174.647 400.000 C 176.593 400.000,174.182 391.423,171.391 388.420 C 168.244 385.034,167.453 382.901,167.303 377.400 C 167.126 370.941,167.180 371.085,163.629 367.628 C 159.831 363.931,159.664 363.388,159.201 353.200 C 158.800 344.377,157.841 341.040,155.034 338.693 C 151.595 335.818,151.200 334.347,151.200 324.403 L 151.200 315.762 149.700 314.325 C 148.875 313.534,147.831 312.777,147.379 312.642 C 146.928 312.507,145.848 311.669,144.979 310.779 L 143.400 309.162 143.200 288.881 C 143.026 271.285,142.934 268.921,142.500 271.024"/><path id="path4" fill="#fdd2a8" fill-rule="evenodd" stroke="none" d="M155.338 107.300 C 154.897 107.795,154.326 108.940,154.068 109.845 C 153.473 111.939,151.939 113.473,149.845 114.068 C 147.630 114.698,146.662 115.642,146.108 117.712 C 145.528 119.880,143.980 121.462,141.845 122.068 C 138.410 123.045,138.468 122.855,138.326 133.546 C 138.183 144.307,137.887 145.426,134.600 147.643 C 133.720 148.236,132.446 149.504,131.769 150.461 C 130.338 152.484,128.108 153.869,125.695 154.234 C 124.758 154.376,123.543 154.845,122.995 155.275 L 122.000 156.058 122.000 171.953 C 122.000 190.034,121.735 188.682,125.644 190.567 C 128.035 191.720,128.280 191.968,129.443 194.400 C 130.611 196.845,130.850 197.083,133.443 198.400 C 137.358 200.388,137.985 201.610,137.993 207.271 C 137.997 209.620,138.182 212.950,138.405 214.671 C 139.188 220.718,139.016 220.329,141.358 221.365 C 143.603 222.357,144.820 223.714,145.514 226.000 C 145.996 227.584,146.125 259.155,145.774 289.355 L 145.556 308.110 146.678 309.288 C 147.295 309.936,148.423 310.728,149.185 311.048 C 153.087 312.689,153.580 314.188,153.591 324.440 L 153.600 332.680 154.762 334.284 C 155.401 335.166,156.526 336.260,157.262 336.716 C 160.090 338.468,161.113 341.965,161.437 351.000 C 161.766 360.137,162.714 363.504,165.461 365.283 C 168.264 367.099,169.335 369.877,169.591 375.990 C 169.829 381.705,170.330 382.981,173.387 385.672 C 175.780 387.779,177.600 393.183,177.600 398.183 L 177.600 400.000 180.400 400.000 L 183.200 400.000 183.200 369.831 L 183.200 339.661 182.231 338.509 C 181.697 337.876,180.417 336.923,179.385 336.392 C 177.564 335.455,175.600 333.411,175.600 332.452 C 175.600 331.760,172.126 328.400,171.411 328.400 C 170.275 328.400,167.600 325.311,167.600 324.000 C 167.600 322.749,170.254 319.600,171.309 319.600 C 173.579 319.600,175.243 316.572,176.006 311.051 C 176.688 306.122,178.002 304.736,182.642 304.048 C 184.379 303.790,187.690 303.296,190.000 302.950 C 197.734 301.791,202.755 301.789,208.200 302.940 C 213.477 304.055,213.023 303.754,217.481 309.114 C 218.185 309.961,219.600 311.086,220.626 311.613 C 224.025 313.362,224.600 314.575,224.600 320.000 C 224.600 325.431,224.026 326.638,220.606 328.397 C 218.843 329.303,216.400 331.718,216.400 332.553 C 216.400 333.422,214.352 335.499,212.615 336.392 C 207.950 338.791,207.950 341.209,212.615 343.608 C 213.647 344.138,214.965 345.194,215.545 345.955 L 216.600 347.337 216.800 368.102 L 217.000 388.866 218.306 390.033 C 220.926 392.373,222.400 390.363,222.400 384.449 C 222.400 378.866,223.520 376.355,226.540 375.169 C 227.233 374.897,228.385 374.127,229.100 373.459 L 230.400 372.243 230.400 364.309 C 230.400 354.521,231.021 352.552,234.540 351.169 C 235.233 350.897,236.385 350.127,237.100 349.459 L 238.400 348.243 238.409 340.222 C 238.420 330.213,238.932 328.680,242.815 327.048 C 243.577 326.728,244.685 325.956,245.279 325.333 L 246.357 324.200 246.479 311.600 L 246.600 299.000 247.739 296.680 C 248.542 295.045,249.370 294.041,250.539 293.283 C 253.559 291.327,254.285 288.265,254.527 276.465 L 254.703 267.929 253.396 266.623 C 252.546 265.773,251.537 265.228,250.505 265.063 C 245.893 264.326,245.600 263.306,245.600 248.007 C 245.600 232.399,245.774 231.684,249.949 230.148 C 253.377 228.886,253.600 228.482,253.600 223.517 C 253.600 217.346,254.494 215.419,257.949 214.148 C 261.385 212.883,261.599 212.492,261.609 207.430 C 261.621 201.121,262.965 198.642,266.834 197.793 C 268.235 197.485,269.307 196.233,270.165 193.904 C 270.942 191.794,272.123 190.678,274.325 189.974 C 275.136 189.714,276.205 189.132,276.700 188.681 L 277.600 187.861 277.600 171.992 C 277.600 156.632,277.574 156.101,276.800 155.400 C 275.900 154.585,274.400 155.420,274.400 156.736 C 274.400 160.837,269.067 163.569,264.950 161.576 C 261.732 160.018,261.600 159.355,261.600 144.743 L 261.600 132.139 260.674 131.270 C 260.164 130.790,259.221 130.397,258.574 130.393 C 257.928 130.389,256.185 130.129,254.700 129.814 C 252.358 129.318,251.642 129.318,249.300 129.814 C 244.358 130.861,195.176 130.654,192.950 129.576 C 191.288 128.771,189.600 126.336,189.600 124.743 C 189.600 122.999,187.965 122.400,183.201 122.400 C 176.843 122.400,173.600 120.489,173.600 116.743 C 173.600 115.834,172.003 114.593,170.155 114.068 C 168.061 113.473,166.527 111.939,165.932 109.845 C 165.061 106.782,164.403 106.400,160.000 106.400 C 156.501 106.400,156.064 106.484,155.338 107.300"/></g></svg>