<svg width="26" height="24" viewBox="0 0 26 24" xmlns="http://www.w3.org/2000/svg"><title>Chrome Copy</title><g transform="translate(.889)" fill="#A6ADC9" fill-rule="evenodd"><ellipse cx="12.251" cy="12" rx="4.9" ry="4.8"/><path d="M12.25 17.6c-2.123 0-3.96-1.12-4.94-2.8L1.878 5.6A11.797 11.797 0 0 0 0 12c0 6.16 4.778 11.24 10.862 11.92l4.125-7.04c-.776.48-1.715.72-2.736.72z"/><path d="M23.48 7.2h-8.29a5.523 5.523 0 0 1 2.778 4.8c0 1.04-.286 1.96-.776 2.8l-5.39 9.2h.449c6.778 0 12.25-5.36 12.25-12 0-1.72-.367-3.32-1.02-4.8z"/><path d="M12.25 6.4h10.822C21.03 2.6 16.947 0 12.251 0 8.208 0 4.614 1.92 2.409 4.88l4.125 7.04c.04-3.08 2.572-5.52 5.717-5.52z"/></g></svg>