<svg width="43" height="11" viewBox="0 0 43 11" xmlns="http://www.w3.org/2000/svg"><title>Shape</title><path d="M10.792 10.825H9.594V6.447c0-1.612-.576-2.418-1.726-2.418-.267 0-.513.056-.736.166-.224.11-.42.26-.584.451a2.163 2.163 0 0 0-.52 1.405v4.774H4.83V6.164c0-.633-.139-1.147-.417-1.54-.277-.397-.687-.593-1.23-.593-.277 0-.533.061-.767.182a1.92 1.92 0 0 0-.607.49 2.364 2.364 0 0 0-.401.695 2.222 2.222 0 0 0-.144.782v4.647h-1.2V5.183A33.259 33.259 0 0 0 0 3.193h1.071v1.249h.112c.543-.937 1.343-1.407 2.398-1.407.513 0 .957.137 1.335.411.38.275.648.648.808 1.122h.032c.277-.506.632-.887 1.064-1.146.431-.26.925-.387 1.48-.387.757 0 1.36.287 1.814.86.453.575.68 1.374.68 2.394v4.536h-.002zm6.238 0l-.112-.98h-.048c-.523.768-1.301 1.153-2.335 1.153a2.53 2.53 0 0 1-.911-.158 2.112 2.112 0 0 1-1.376-2.007c0-.926.39-1.63 1.168-2.11.778-.48 1.908-.719 3.39-.719v-.173c0-1.254-.591-1.881-1.774-1.881-.736 0-1.386.184-1.951.552l-.288-.82c.682-.432 1.488-.647 2.414-.647 1.876 0 2.815 1.017 2.815 3.05v2.923c0 .369.008.703.023 1.004.016.3.045.572.089.813H17.03zm-.208-3.951h-.24c-2.069 0-3.102.6-3.102 1.801 0 .475.127.827.383 1.06.256.23.576.347.96.347a2.183 2.183 0 0 0 1.367-.481c.186-.154.338-.34.456-.562.117-.22.176-.468.176-.743V6.874zm8.332-2.481c-.47-.253-1.013-.38-1.632-.38-.438 0-.826.078-1.167.23a2.473 2.473 0 0 0-.864.632 2.855 2.855 0 0 0-.543.956 3.654 3.654 0 0 0-.192 1.201c0 .442.066.849.2 1.217.133.368.32.683.559.94.239.258.524.46.855.6.33.143.699.214 1.104.214.576 0 1.146-.126 1.71-.38l.24.917c-.598.294-1.321.442-2.175.442a4.085 4.085 0 0 1-1.536-.277 3.375 3.375 0 0 1-1.942-2.014 4.574 4.574 0 0 1-.264-1.596c0-.6.098-1.148.295-1.643a3.82 3.82 0 0 1 .823-1.28 3.706 3.706 0 0 1 1.272-.838 4.35 4.35 0 0 1 1.639-.3c.778 0 1.417.136 1.919.41l-.301.949zm10.585.996c0 .831-.114 1.59-.344 2.275a5.317 5.317 0 0 1-.975 1.77c-.42.497-.928.88-1.52 1.155-.591.274-1.25.411-1.975.411a4.45 4.45 0 0 1-1.903-.404 4.429 4.429 0 0 1-1.487-1.121 5.16 5.16 0 0 1-.967-1.706c-.23-.659-.343-1.383-.343-2.173 0-.821.12-1.577.36-2.268a5.34 5.34 0 0 1 1-1.77c.427-.49.934-.872 1.527-1.147A4.554 4.554 0 0 1 31.054 0c.703 0 1.346.132 1.927.396.58.264 1.074.632 1.48 1.106.404.474.718 1.044.943 1.706.224.665.335 1.39.335 2.18zm-1.294.063c0-.632-.086-1.22-.256-1.762a4.718 4.718 0 0 0-.711-1.422 3.33 3.33 0 0 0-1.087-.948 2.899 2.899 0 0 0-1.399-.34c-.523 0-1 .114-1.431.34-.432.227-.8.543-1.104.948-.304.405-.542.89-.71 1.454a6.335 6.335 0 0 0-.257 1.842c0 .621.085 1.204.256 1.746.17.543.408 1.014.711 1.415.304.4.67.716 1.095.948.426.231.895.348 1.406.348.523 0 1-.115 1.431-.348a3.31 3.31 0 0 0 1.104-.964 4.62 4.62 0 0 0 .703-1.445 6.296 6.296 0 0 0 .249-1.812zM43 7.965c0 .453-.085.867-.256 1.241-.17.375-.413.694-.728.956a3.32 3.32 0 0 1-1.143.61 4.932 4.932 0 0 1-1.503.213c-1.108 0-1.988-.227-2.639-.68l.336-.996a4.44 4.44 0 0 0 2.383.663c.735 0 1.305-.173 1.71-.522.406-.348.607-.811.607-1.39 0-.537-.156-.971-.472-1.304-.315-.332-.833-.635-1.558-.908-1.844-.685-2.767-1.687-2.767-3.003 0-.411.083-.79.249-1.137a2.7 2.7 0 0 1 .695-.9 3.158 3.158 0 0 1 1.064-.586c.41-.136.855-.205 1.335-.205.927 0 1.684.169 2.27.506l-.369.98c-.523-.326-1.172-.489-1.95-.489-.619 0-1.12.154-1.504.459-.383.305-.576.71-.576 1.217 0 .242.035.459.104.647.07.189.184.369.345.537.16.17.376.33.647.482a9.2 9.2 0 0 0 1.031.482c.48.19.89.393 1.231.61.342.215.621.45.84.702.219.253.376.53.472.83.098.298.146.627.146.985z" fill="#A6ADC9"/></svg>