<svg width="25" height="24" viewBox="0 0 25 24" xmlns="http://www.w3.org/2000/svg"><title>safari wired icon copy</title><g transform="translate(.111)" fill="none" fill-rule="evenodd"><ellipse fill="#A6ADC9" cx="12.251" cy="12" rx="12.251" ry="12"/><path d="M10.944 10.695L5.86 18.389l7.694-5.085 5.085-7.694-7.694 5.085z" stroke="#F3F5FA" stroke-width=".5"/><path fill="#FFF" d="M10.764 10.514l8.758-5.788-5.788 8.758z"/><path fill="#F3F5FA" d="M12.076 1.714h1v1.714h-1zm0 18.857h1v1.714h-1zM17.34 3.005l.866.5-.857 1.484-.866-.5zm-9.625 16.33l.866.5-.857 1.484-.866-.5zM21.24 6.705l.5.866-1.483.857-.5-.866zM4.57 16.133l.5.866-1.485.857-.5-.866zm13.074 4.687l-.866.5-.857-1.484.866-.5zM8.018 4.489l-.866.5-.857-1.485.866-.5zM21.417 16.99l-.5.867L19.432 17l.5-.866zM4.744 7.562l-.5.866L2.76 7.57l.5-.866zm17.99 4.262v1H21.02v-1zm-19.251 0v1H1.769v-1z"/></g></svg>