<svg width="23" height="22" viewBox="0 0 23 22" xmlns="http://www.w3.org/2000/svg"><title>Windows</title><path d="M10.26 1.718C14.196 1.115 18.141.548 22.086 0c.002 3.458 0 6.912.002 10.37-3.942.015-7.885.075-11.83.088-.002-2.915-.002-5.828 0-8.74zm-10 1.394c2.964-.457 5.942-.852 8.92-1.225l.004 8.6c-2.975-.002-5.95.043-8.925.036v-7.41zm0 8.313c2.972-.01 5.944.037 8.917.032 0 2.875.007 5.75.002 8.625-2.97-.44-5.945-.825-8.92-1.227v-7.43zm9.982.115h11.845c.005 3.448 0 6.895 0 10.345a856.86 856.86 0 0 0-11.828-1.673l-.017-8.672z" fill="#A6ADC9" fill-rule="evenodd"/></svg>